<svg xmlns="http://www.w3.org/2000/svg" viewBox="0 0 100 125"><path fill="#fff" d="M90.5 70h-80C9.1 70 8 68.9 8 67.5v-42c0-1.4 1.1-2.5 2.5-2.5h80c1.4 0 2.5 1.1 2.5 2.5v42c0 1.4-1.1 2.5-2.5 2.5zm-80-46c-.8 0-1.5.7-1.5 1.5v42c0 .8.7 1.5 1.5 1.5h80c.8 0 1.5-.7 1.5-1.5v-42c0-.8-.7-1.5-1.5-1.5h-80z"/><path fill="#fff" d="M16.5 35h-4c-.8 0-1.5-.7-1.5-1.5v-1c0-.8.7-1.5 1.5-1.5h4c.8 0 1.5.7 1.5 1.5v1c0 .8-.7 1.5-1.5 1.5zm-4-3c-.3 0-.5.2-.5.5v1c0 .3.2.5.5.5h4c.3 0 .5-.2.5-.5v-1c0-.3-.2-.5-.5-.5h-4zm63 35h-3c-.8 0-1.5-.7-1.5-1.5s.7-1.5 1.5-1.5h3c.8 0 1.5.7 1.5 1.5s-.7 1.5-1.5 1.5zm-3-2c-.3 0-.5.2-.5.5s.2.5.5.5h3c.3 0 .5-.2.5-.5s-.2-.5-.5-.5h-3zm10 2h-3c-.8 0-1.5-.7-1.5-1.5s.7-1.5 1.5-1.5h3c.8 0 1.5.7 1.5 1.5s-.7 1.5-1.5 1.5zm-3-2c-.3 0-.5.2-.5.5s.2.5.5.5h3c.3 0 .5-.2.5-.5s-.2-.5-.5-.5h-3zm3-2h-3c-.8 0-1.5-.7-1.5-1.5s.7-1.5 1.5-1.5h3c.8 0 1.5.7 1.5 1.5s-.7 1.5-1.5 1.5zm-3-2c-.3 0-.5.2-.5.5s.2.5.5.5h3c.3 0 .5-.2.5-.5s-.2-.5-.5-.5h-3zm10 6h-3c-.8 0-1.5-.7-1.5-1.5s.7-1.5 1.5-1.5h3c.8 0 1.5.7 1.5 1.5s-.7 1.5-1.5 1.5zm-3-2c-.3 0-.5.2-.5.5s.2.5.5.5h3c.3 0 .5-.2.5-.5s-.2-.5-.5-.5h-3zm-62-30h-4c-.8 0-1.5-.7-1.5-1.5v-1c0-.8.7-1.5 1.5-1.5h4c.8 0 1.5.7 1.5 1.5v1c0 .8-.7 1.5-1.5 1.5zm-4-3c-.3 0-.5.2-.5.5v1c0 .3.2.5.5.5h4c.3 0 .5-.2.5-.5v-1c0-.3-.2-.5-.5-.5h-4zm12 3h-4c-.8 0-1.5-.7-1.5-1.5v-1c0-.8.7-1.5 1.5-1.5h4c.8 0 1.5.7 1.5 1.5v1c0 .8-.7 1.5-1.5 1.5zm-4-3c-.3 0-.5.2-.5.5v1c0 .3.2.5.5.5h4c.3 0 .5-.2.5-.5v-1c0-.3-.2-.5-.5-.5h-4zm12 3h-4c-.8 0-1.5-.7-1.5-1.5v-1c0-.8.7-1.5 1.5-1.5h4c.8 0 1.5.7 1.5 1.5v1c0 .8-.7 1.5-1.5 1.5zm-4-3c-.3 0-.5.2-.5.5v1c0 .3.2.5.5.5h4c.3 0 .5-.2.5-.5v-1c0-.3-.2-.5-.5-.5h-4zm12 3h-4c-.8 0-1.5-.7-1.5-1.5v-1c0-.8.7-1.5 1.5-1.5h4c.8 0 1.5.7 1.5 1.5v1c0 .8-.7 1.5-1.5 1.5zm-4-3c-.3 0-.5.2-.5.5v1c0 .3.2.5.5.5h4c.3 0 .5-.2.5-.5v-1c0-.3-.2-.5-.5-.5h-4zm12 3h-4c-.8 0-1.5-.7-1.5-1.5v-1c0-.8.7-1.5 1.5-1.5h4c.8 0 1.5.7 1.5 1.5v1c0 .8-.7 1.5-1.5 1.5zm-4-3c-.3 0-.5.2-.5.5v1c0 .3.2.5.5.5h4c.3 0 .5-.2.5-.5v-1c0-.3-.2-.5-.5-.5h-4zm12 3h-4c-.8 0-1.5-.7-1.5-1.5v-1c0-.8.7-1.5 1.5-1.5h4c.8 0 1.5.7 1.5 1.5v1c0 .8-.7 1.5-1.5 1.5zm-4-3c-.3 0-.5.2-.5.5v1c0 .3.2.5.5.5h4c.3 0 .5-.2.5-.5v-1c0-.3-.2-.5-.5-.5h-4zm12 3h-4c-.8 0-1.5-.7-1.5-1.5v-1c0-.8.7-1.5 1.5-1.5h4c.8 0 1.5.7 1.5 1.5v1c0 .8-.7 1.5-1.5 1.5zm-4-3c-.3 0-.5.2-.5.5v1c0 .3.2.5.5.5h4c.3 0 .5-.2.5-.5v-1c0-.3-.2-.5-.5-.5h-4zm12 3h-4c-.8 0-1.5-.7-1.5-1.5v-1c0-.8.7-1.5 1.5-1.5h4c.8 0 1.5.7 1.5 1.5v1c0 .8-.7 1.5-1.5 1.5zm-4-3c-.3 0-.5.2-.5.5v1c0 .3.2.5.5.5h4c.3 0 .5-.2.5-.5v-1c0-.3-.2-.5-.5-.5h-4zm12 3h-4c-.8 0-1.5-.7-1.5-1.5v-1c0-.8.7-1.5 1.5-1.5h4c.8 0 1.5.7 1.5 1.5v1c0 .8-.7 1.5-1.5 1.5zm-4-3c-.3 0-.5.2-.5.5v1c0 .3.2.5.5.5h4c.3 0 .5-.2.5-.5v-1c0-.3-.2-.5-.5-.5h-4zm-68 11h-4c-.8 0-1.5-.7-1.5-1.5v-4c0-.8.7-1.5 1.5-1.5h4c.8 0 1.5.7 1.5 1.5v4c0 .8-.7 1.5-1.5 1.5zm-4-6c-.3 0-.5.2-.5.5v4c0 .3.2.5.5.5h4c.3 0 .5-.2.5-.5v-4c0-.3-.2-.5-.5-.5h-4zm12 6h-4c-.8 0-1.5-.7-1.5-1.5v-4c0-.8.7-1.5 1.5-1.5h4c.8 0 1.5.7 1.5 1.5v4c0 .8-.7 1.5-1.5 1.5zm-4-6c-.3 0-.5.2-.5.5v4c0 .3.2.5.5.5h4c.3 0 .5-.2.5-.5v-4c0-.3-.2-.5-.5-.5h-4zm6 14h-4c-.8 0-1.5-.7-1.5-1.5v-4c0-.8.7-1.5 1.5-1.5h4c.8 0 1.5.7 1.5 1.5v4c0 .8-.7 1.5-1.5 1.5zm-4-6c-.3 0-.5.2-.5.5v4c0 .3.2.5.5.5h4c.3 0 .5-.2.5-.5v-4c0-.3-.2-.5-.5-.5h-4zm7 14h-4c-.8 0-1.5-.7-1.5-1.5v-4c0-.8.7-1.5 1.5-1.5h4c.8 0 1.5.7 1.5 1.5v4c0 .8-.7 1.5-1.5 1.5zm-4-6c-.3 0-.5.2-.5.5v4c0 .3.2.5.5.5h4c.3 0 .5-.2.5-.5v-4c0-.3-.2-.5-.5-.5h-4zm7-10h-4c-.8 0-1.5-.7-1.5-1.5v-4c0-.8.7-1.5 1.5-1.5h4c.8 0 1.5.7 1.5 1.5v4c0 .8-.7 1.5-1.5 1.5zm-4-6c-.3 0-.5.2-.5.5v4c0 .3.2.5.5.5h4c.3 0 .5-.2.5-.5v-4c0-.3-.2-.5-.5-.5h-4zm6 14h-4c-.8 0-1.5-.7-1.5-1.5v-4c0-.8.7-1.5 1.5-1.5h4c.8 0 1.5.7 1.5 1.5v4c0 .8-.7 1.5-1.5 1.5zm-4-6c-.3 0-.5.2-.5.5v4c0 .3.2.5.5.5h4c.3 0 .5-.2.5-.5v-4c0-.3-.2-.5-.5-.5h-4zm7 14h-4c-.8 0-1.5-.7-1.5-1.5v-4c0-.8.7-1.5 1.5-1.5h4c.8 0 1.5.7 1.5 1.5v4c0 .8-.7 1.5-1.5 1.5zm-4-6c-.3 0-.5.2-.5.5v4c0 .3.2.5.5.5h4c.3 0 .5-.2.5-.5v-4c0-.3-.2-.5-.5-.5h-4zm7-10h-4c-.8 0-1.5-.7-1.5-1.5v-4c0-.8.7-1.5 1.5-1.5h4c.8 0 1.5.7 1.5 1.5v4c0 .8-.7 1.5-1.5 1.5zm-4-6c-.3 0-.5.2-.5.5v4c0 .3.2.5.5.5h4c.3 0 .5-.2.5-.5v-4c0-.3-.2-.5-.5-.5h-4zm6 14h-4c-.8 0-1.5-.7-1.5-1.5v-4c0-.8.7-1.5 1.5-1.5h4c.8 0 1.5.7 1.5 1.5v4c0 .8-.7 1.5-1.5 1.5zm-4-6c-.3 0-.5.2-.5.5v4c0 .3.2.5.5.5h4c.3 0 .5-.2.5-.5v-4c0-.3-.2-.5-.5-.5h-4zm7 14h-4c-.8 0-1.5-.7-1.5-1.5v-4c0-.8.7-1.5 1.5-1.5h4c.8 0 1.5.7 1.5 1.5v4c0 .8-.7 1.5-1.5 1.5zm-4-6c-.3 0-.5.2-.5.5v4c0 .3.2.5.5.5h4c.3 0 .5-.2.5-.5v-4c0-.3-.2-.5-.5-.5h-4zm7-10h-4c-.8 0-1.5-.7-1.5-1.5v-4c0-.8.7-1.5 1.5-1.5h4c.8 0 1.5.7 1.5 1.5v4c0 .8-.7 1.5-1.5 1.5zm-4-6c-.3 0-.5.2-.5.5v4c0 .3.2.5.5.5h4c.3 0 .5-.2.5-.5v-4c0-.3-.2-.5-.5-.5h-4zm6 14h-4c-.8 0-1.5-.7-1.5-1.5v-4c0-.8.7-1.5 1.5-1.5h4c.8 0 1.5.7 1.5 1.5v4c0 .8-.7 1.5-1.5 1.5zm-4-6c-.3 0-.5.2-.5.5v4c0 .3.2.5.5.5h4c.3 0 .5-.2.5-.5v-4c0-.3-.2-.5-.5-.5h-4zm7 14h-4c-.8 0-1.5-.7-1.5-1.5v-4c0-.8.7-1.5 1.5-1.5h4c.8 0 1.5.7 1.5 1.5v4c0 .8-.7 1.5-1.5 1.5zm-4-6c-.3 0-.5.2-.5.5v4c0 .3.2.5.5.5h4c.3 0 .5-.2.5-.5v-4c0-.3-.2-.5-.5-.5h-4zm7-10h-4c-.8 0-1.5-.7-1.5-1.5v-4c0-.8.7-1.5 1.5-1.5h4c.8 0 1.5.7 1.5 1.5v4c0 .8-.7 1.5-1.5 1.5zm-4-6c-.3 0-.5.2-.5.5v4c0 .3.2.5.5.5h4c.3 0 .5-.2.5-.5v-4c0-.3-.2-.5-.5-.5h-4zm6 14h-4c-.8 0-1.5-.7-1.5-1.5v-4c0-.8.7-1.5 1.5-1.5h4c.8 0 1.5.7 1.5 1.5v4c0 .8-.7 1.5-1.5 1.5zm-4-6c-.3 0-.5.2-.5.5v4c0 .3.2.5.5.5h4c.3 0 .5-.2.5-.5v-4c0-.3-.2-.5-.5-.5h-4zm7 14h-4c-.8 0-1.5-.7-1.5-1.5v-4c0-.8.7-1.5 1.5-1.5h4c.8 0 1.5.7 1.5 1.5v4c0 .8-.7 1.5-1.5 1.5zm-4-6c-.3 0-.5.2-.5.5v4c0 .3.2.5.5.5h4c.3 0 .5-.2.5-.5v-4c0-.3-.2-.5-.5-.5h-4zm7-10h-4c-.8 0-1.5-.7-1.5-1.5v-4c0-.8.7-1.5 1.5-1.5h4c.8 0 1.5.7 1.5 1.5v4c0 .8-.7 1.5-1.5 1.5zm-4-6c-.3 0-.5.2-.5.5v4c0 .3.2.5.5.5h4c.3 0 .5-.2.5-.5v-4c0-.3-.2-.5-.5-.5h-4zm12 6h-4c-.8 0-1.5-.7-1.5-1.5v-4c0-.8.7-1.5 1.5-1.5h4c.8 0 1.5.7 1.5 1.5v4c0 .8-.7 1.5-1.5 1.5zm-4-6c-.3 0-.5.2-.5.5v4c0 .3.2.5.5.5h4c.3 0 .5-.2.5-.5v-4c0-.3-.2-.5-.5-.5h-4zm12 6h-4c-.8 0-1.5-.7-1.5-1.5v-4c0-.8.7-1.5 1.5-1.5h4c.8 0 1.5.7 1.5 1.5v4c0 .8-.7 1.5-1.5 1.5zm-4-6c-.3 0-.5.2-.5.5v4c0 .3.2.5.5.5h4c.3 0 .5-.2.5-.5v-4c0-.3-.2-.5-.5-.5h-4zm12 6h-4c-.8 0-1.5-.7-1.5-1.5v-4c0-.8.7-1.5 1.5-1.5h4c.8 0 1.5.7 1.5 1.5v4c0 .8-.7 1.5-1.5 1.5zm-4-6c-.3 0-.5.2-.5.5v4c0 .3.2.5.5.5h4c.3 0 .5-.2.5-.5v-4c0-.3-.2-.5-.5-.5h-4zm-18 14h-4c-.8 0-1.5-.7-1.5-1.5v-4c0-.8.7-1.5 1.5-1.5h4c.8 0 1.5.7 1.5 1.5v4c0 .8-.7 1.5-1.5 1.5zm-4-6c-.3 0-.5.2-.5.5v4c0 .3.2.5.5.5h4c.3 0 .5-.2.5-.5v-4c0-.3-.2-.5-.5-.5h-4zm12 6h-4c-.8 0-1.5-.7-1.5-1.5v-4c0-.8.7-1.5 1.5-1.5h4c.8 0 1.5.7 1.5 1.5v4c0 .8-.7 1.5-1.5 1.5zm-4-6c-.3 0-.5.2-.5.5v4c0 .3.2.5.5.5h4c.3 0 .5-.2.5-.5v-4c0-.3-.2-.5-.5-.5h-4zm12 6h-4c-.8 0-1.5-.7-1.5-1.5v-4c0-.8.7-1.5 1.5-1.5h4c.8 0 1.5.7 1.5 1.5v4c0 .8-.7 1.5-1.5 1.5zm-4-6c-.3 0-.5.2-.5.5v4c0 .3.2.5.5.5h4c.3 0 .5-.2.5-.5v-4c0-.3-.2-.5-.5-.5h-4zm10 6h-2c-.8 0-1.5-.7-1.5-1.5v-4c0-.8.7-1.5 1.5-1.5h2c.8 0 1.5.7 1.5 1.5v4c0 .8-.7 1.5-1.5 1.5zm-2-6c-.3 0-.5.2-.5.5v4c0 .3.2.5.5.5h2c.3 0 .5-.2.5-.5v-4c0-.3-.2-.5-.5-.5h-2zm-17 14h-4c-.8 0-1.5-.7-1.5-1.5v-4c0-.8.7-1.5 1.5-1.5h4c.8 0 1.5.7 1.5 1.5v4c0 .8-.7 1.5-1.5 1.5zm-4-6c-.3 0-.5.2-.5.5v4c0 .3.2.5.5.5h4c.3 0 .5-.2.5-.5v-4c0-.3-.2-.5-.5-.5h-4zm12 6h-4c-.8 0-1.5-.7-1.5-1.5v-4c0-.8.7-1.5 1.5-1.5h4c.8 0 1.5.7 1.5 1.5v4c0 .8-.7 1.5-1.5 1.5zm-4-6c-.3 0-.5.2-.5.5v4c0 .3.2.5.5.5h4c.3 0 .5-.2.5-.5v-4c0-.3-.2-.5-.5-.5h-4zm-49 14h-4c-.8 0-1.5-.7-1.5-1.5v-4c0-.8.7-1.5 1.5-1.5h4c.8 0 1.5.7 1.5 1.5v4c0 .8-.7 1.5-1.5 1.5zm-4-6c-.3 0-.5.2-.5.5v4c0 .3.2.5.5.5h4c.3 0 .5-.2.5-.5v-4c0-.3-.2-.5-.5-.5h-4zm48 6h-4c-.8 0-1.5-.7-1.5-1.5v-4c0-.8.7-1.5 1.5-1.5h4c.8 0 1.5.7 1.5 1.5v4c0 .8-.7 1.5-1.5 1.5zm-4-6c-.3 0-.5.2-.5.5v4c0 .3.2.5.5.5h4c.3 0 .5-.2.5-.5v-4c0-.3-.2-.5-.5-.5h-4zm-4 6h-32c-.8 0-1.5-.7-1.5-1.5v-4c0-.8.7-1.5 1.5-1.5h32c.8 0 1.5.7 1.5 1.5v4c0 .8-.7 1.5-1.5 1.5zm-32-6c-.3 0-.5.2-.5.5v4c0 .3.2.5.5.5h32c.3 0 .5-.2.5-.5v-4c0-.3-.2-.5-.5-.5h-32zm-12 6h-4c-.8 0-1.5-.7-1.5-1.5v-4c0-.8.7-1.5 1.5-1.5h4c.8 0 1.5.7 1.5 1.5v4c0 .8-.7 1.5-1.5 1.5zm-4-6c-.3 0-.5.2-.5.5v4c0 .3.2.5.5.5h4c.3 0 .5-.2.5-.5v-4c0-.3-.2-.5-.5-.5h-4zm6-10h-6c-.8 0-1.5-.7-1.5-1.5v-4c0-.8.7-1.5 1.5-1.5h6c.8 0 1.5.7 1.5 1.5v4c0 .8-.7 1.5-1.5 1.5zm-6-6c-.3 0-.5.2-.5.5v4c0 .3.2.5.5.5h6c.3 0 .5-.2.5-.5v-4c0-.3-.2-.5-.5-.5h-6zm9 14h-9c-.8 0-1.5-.7-1.5-1.5v-4c0-.8.7-1.5 1.5-1.5h9c.8 0 1.5.7 1.5 1.5v4c0 .8-.7 1.5-1.5 1.5zm-9-6c-.3 0-.5.2-.5.5v4c0 .3.2.5.5.5h9c.3 0 .5-.2.5-.5v-4c0-.3-.2-.5-.5-.5h-9zm76 6h-7c-.8 0-1.5-.7-1.5-1.5v-4c0-.8.7-1.5 1.5-1.5h7c.8 0 1.5.7 1.5 1.5v4c0 .8-.7 1.5-1.5 1.5zm-7-6c-.3 0-.5.2-.5.5v4c0 .3.2.5.5.5h7c.3 0 .5-.2.5-.5v-4c0-.3-.2-.5-.5-.5h-7z"/></svg>