<svg xmlns="http://www.w3.org/2000/svg" xmlns:xlink="http://www.w3.org/1999/xlink" version="1.1" x="0px" y="0px" viewBox="0 0 100 125" enable-background="new 0 0 100 100" xml:space="preserve"><g><g><path fill="#ffffff" d="M90.5,70h-80C9.1,70,8,68.9,8,67.5v-42c0-1.4,1.1-2.5,2.5-2.5h80c1.4,0,2.5,1.1,2.5,2.5v42    C93,68.9,91.9,70,90.5,70z M10.5,24C9.7,24,9,24.7,9,25.5v42c0,0.8,0.7,1.5,1.5,1.5h80c0.8,0,1.5-0.7,1.5-1.5v-42    c0-0.8-0.7-1.5-1.5-1.5H10.5z"/></g><g><path fill="#ffffff" d="M16.5,35h-4c-0.8,0-1.5-0.7-1.5-1.5v-1c0-0.8,0.7-1.5,1.5-1.5h4c0.8,0,1.5,0.7,1.5,1.5v1    C18,34.3,17.3,35,16.5,35z M12.5,32c-0.3,0-0.5,0.2-0.5,0.5v1c0,0.3,0.2,0.5,0.5,0.5h4c0.3,0,0.5-0.2,0.5-0.5v-1    c0-0.3-0.2-0.5-0.5-0.5H12.5z"/></g><g><path fill="#ffffff" d="M75.5,67h-3c-0.8,0-1.5-0.7-1.5-1.5s0.7-1.5,1.5-1.5h3c0.8,0,1.5,0.7,1.5,1.5S76.3,67,75.5,67z M72.5,65    c-0.3,0-0.5,0.2-0.5,0.5s0.2,0.5,0.5,0.5h3c0.3,0,0.5-0.2,0.5-0.5S75.8,65,75.5,65H72.5z"/></g><g><path fill="#ffffff" d="M82.5,67h-3c-0.8,0-1.5-0.7-1.5-1.5s0.7-1.5,1.5-1.5h3c0.8,0,1.5,0.7,1.5,1.5S83.3,67,82.5,67z M79.5,65    c-0.3,0-0.5,0.2-0.5,0.5s0.2,0.5,0.5,0.5h3c0.3,0,0.5-0.2,0.5-0.5S82.8,65,82.5,65H79.5z"/></g><g><path fill="#ffffff" d="M82.5,63h-3c-0.8,0-1.5-0.7-1.5-1.5s0.7-1.5,1.5-1.5h3c0.8,0,1.5,0.7,1.5,1.5S83.3,63,82.5,63z M79.5,61    c-0.3,0-0.5,0.2-0.5,0.5s0.2,0.5,0.5,0.5h3c0.3,0,0.5-0.2,0.5-0.5S82.8,61,82.5,61H79.5z"/></g><g><path fill="#ffffff" d="M89.5,67h-3c-0.8,0-1.5-0.7-1.5-1.5s0.7-1.5,1.5-1.5h3c0.8,0,1.5,0.7,1.5,1.5S90.3,67,89.5,67z M86.5,65    c-0.3,0-0.5,0.2-0.5,0.5s0.2,0.5,0.5,0.5h3c0.3,0,0.5-0.2,0.5-0.5S89.8,65,89.5,65H86.5z"/></g><g><path fill="#ffffff" d="M24.5,35h-4c-0.8,0-1.5-0.7-1.5-1.5v-1c0-0.8,0.7-1.5,1.5-1.5h4c0.8,0,1.5,0.7,1.5,1.5v1    C26,34.3,25.3,35,24.5,35z M20.5,32c-0.3,0-0.5,0.2-0.5,0.5v1c0,0.3,0.2,0.5,0.5,0.5h4c0.3,0,0.5-0.2,0.5-0.5v-1    c0-0.3-0.2-0.5-0.5-0.5H20.5z"/></g><g><path fill="#ffffff" d="M32.5,35h-4c-0.8,0-1.5-0.7-1.5-1.5v-1c0-0.8,0.7-1.5,1.5-1.5h4c0.8,0,1.5,0.7,1.5,1.5v1    C34,34.3,33.3,35,32.5,35z M28.5,32c-0.3,0-0.5,0.2-0.5,0.5v1c0,0.3,0.2,0.5,0.5,0.5h4c0.3,0,0.5-0.2,0.5-0.5v-1    c0-0.3-0.2-0.5-0.5-0.5H28.5z"/></g><g><path fill="#ffffff" d="M40.5,35h-4c-0.8,0-1.5-0.7-1.5-1.5v-1c0-0.8,0.7-1.5,1.5-1.5h4c0.8,0,1.5,0.7,1.5,1.5v1    C42,34.3,41.3,35,40.5,35z M36.5,32c-0.3,0-0.5,0.2-0.5,0.5v1c0,0.3,0.2,0.5,0.5,0.5h4c0.3,0,0.5-0.2,0.5-0.5v-1    c0-0.3-0.2-0.5-0.5-0.5H36.5z"/></g><g><path fill="#ffffff" d="M48.5,35h-4c-0.8,0-1.5-0.7-1.5-1.5v-1c0-0.8,0.7-1.5,1.5-1.5h4c0.8,0,1.5,0.7,1.5,1.5v1    C50,34.3,49.3,35,48.5,35z M44.5,32c-0.3,0-0.5,0.2-0.5,0.5v1c0,0.3,0.2,0.5,0.5,0.5h4c0.3,0,0.5-0.2,0.5-0.5v-1    c0-0.3-0.2-0.5-0.5-0.5H44.5z"/></g><g><path fill="#ffffff" d="M56.5,35h-4c-0.8,0-1.5-0.7-1.5-1.5v-1c0-0.8,0.7-1.5,1.5-1.5h4c0.8,0,1.5,0.7,1.5,1.5v1    C58,34.3,57.3,35,56.5,35z M52.5,32c-0.3,0-0.5,0.2-0.5,0.5v1c0,0.3,0.2,0.5,0.5,0.5h4c0.3,0,0.5-0.2,0.5-0.5v-1    c0-0.3-0.2-0.5-0.5-0.5H52.5z"/></g><g><path fill="#ffffff" d="M64.5,35h-4c-0.8,0-1.5-0.7-1.5-1.5v-1c0-0.8,0.7-1.5,1.5-1.5h4c0.8,0,1.5,0.7,1.5,1.5v1    C66,34.3,65.3,35,64.5,35z M60.5,32c-0.3,0-0.5,0.2-0.5,0.5v1c0,0.3,0.2,0.5,0.5,0.5h4c0.3,0,0.5-0.2,0.5-0.5v-1    c0-0.3-0.2-0.5-0.5-0.5H60.5z"/></g><g><path fill="#ffffff" d="M72.5,35h-4c-0.8,0-1.5-0.7-1.5-1.5v-1c0-0.8,0.7-1.5,1.5-1.5h4c0.8,0,1.5,0.7,1.5,1.5v1    C74,34.3,73.3,35,72.5,35z M68.5,32c-0.3,0-0.5,0.2-0.5,0.5v1c0,0.3,0.2,0.5,0.5,0.5h4c0.3,0,0.5-0.2,0.5-0.5v-1    c0-0.3-0.2-0.5-0.5-0.5H68.5z"/></g><g><path fill="#ffffff" d="M80.5,35h-4c-0.8,0-1.5-0.7-1.5-1.5v-1c0-0.8,0.7-1.5,1.5-1.5h4c0.8,0,1.5,0.7,1.5,1.5v1    C82,34.3,81.3,35,80.5,35z M76.5,32c-0.3,0-0.5,0.2-0.5,0.5v1c0,0.3,0.2,0.5,0.5,0.5h4c0.3,0,0.5-0.2,0.5-0.5v-1    c0-0.3-0.2-0.5-0.5-0.5H76.5z"/></g><g><path fill="#ffffff" d="M88.5,35h-4c-0.8,0-1.5-0.7-1.5-1.5v-1c0-0.8,0.7-1.5,1.5-1.5h4c0.8,0,1.5,0.7,1.5,1.5v1    C90,34.3,89.3,35,88.5,35z M84.5,32c-0.3,0-0.5,0.2-0.5,0.5v1c0,0.3,0.2,0.5,0.5,0.5h4c0.3,0,0.5-0.2,0.5-0.5v-1    c0-0.3-0.2-0.5-0.5-0.5H84.5z"/></g><g><path fill="#ffffff" d="M16.5,43h-4c-0.8,0-1.5-0.7-1.5-1.5v-4c0-0.8,0.7-1.5,1.5-1.5h4c0.8,0,1.5,0.7,1.5,1.5v4    C18,42.3,17.3,43,16.5,43z M12.5,37c-0.3,0-0.5,0.2-0.5,0.5v4c0,0.3,0.2,0.5,0.5,0.5h4c0.3,0,0.5-0.2,0.5-0.5v-4    c0-0.3-0.2-0.5-0.5-0.5H12.5z"/></g><g><path fill="#ffffff" d="M24.5,43h-4c-0.8,0-1.5-0.7-1.5-1.5v-4c0-0.8,0.7-1.5,1.5-1.5h4c0.8,0,1.5,0.7,1.5,1.5v4    C26,42.3,25.3,43,24.5,43z M20.5,37c-0.3,0-0.5,0.2-0.5,0.5v4c0,0.3,0.2,0.5,0.5,0.5h4c0.3,0,0.5-0.2,0.5-0.5v-4    c0-0.3-0.2-0.5-0.5-0.5H20.5z"/></g><g><path fill="#ffffff" d="M26.5,51h-4c-0.8,0-1.5-0.7-1.5-1.5v-4c0-0.8,0.7-1.5,1.5-1.5h4c0.8,0,1.5,0.7,1.5,1.5v4    C28,50.3,27.3,51,26.5,51z M22.5,45c-0.3,0-0.5,0.2-0.5,0.5v4c0,0.3,0.2,0.5,0.5,0.5h4c0.3,0,0.5-0.2,0.5-0.5v-4    c0-0.3-0.2-0.5-0.5-0.5H22.5z"/></g><g><path fill="#ffffff" d="M29.5,59h-4c-0.8,0-1.5-0.7-1.5-1.5v-4c0-0.8,0.7-1.5,1.5-1.5h4c0.8,0,1.5,0.7,1.5,1.5v4    C31,58.3,30.3,59,29.5,59z M25.5,53c-0.3,0-0.5,0.2-0.5,0.5v4c0,0.3,0.2,0.5,0.5,0.5h4c0.3,0,0.5-0.2,0.5-0.5v-4    c0-0.3-0.2-0.5-0.5-0.5H25.5z"/></g><g><path fill="#ffffff" d="M32.5,43h-4c-0.8,0-1.5-0.7-1.5-1.5v-4c0-0.8,0.7-1.5,1.5-1.5h4c0.8,0,1.5,0.7,1.5,1.5v4    C34,42.3,33.3,43,32.5,43z M28.5,37c-0.3,0-0.5,0.2-0.5,0.5v4c0,0.3,0.2,0.5,0.5,0.5h4c0.3,0,0.5-0.2,0.5-0.5v-4    c0-0.3-0.2-0.5-0.5-0.5H28.5z"/></g><g><path fill="#ffffff" d="M34.5,51h-4c-0.8,0-1.5-0.7-1.5-1.5v-4c0-0.8,0.7-1.5,1.5-1.5h4c0.8,0,1.5,0.7,1.5,1.5v4    C36,50.3,35.3,51,34.5,51z M30.5,45c-0.3,0-0.5,0.2-0.5,0.5v4c0,0.3,0.2,0.5,0.5,0.5h4c0.3,0,0.5-0.2,0.5-0.5v-4    c0-0.3-0.2-0.5-0.5-0.5H30.5z"/></g><g><path fill="#ffffff" d="M37.5,59h-4c-0.8,0-1.5-0.7-1.5-1.5v-4c0-0.8,0.7-1.5,1.5-1.5h4c0.8,0,1.5,0.7,1.5,1.5v4    C39,58.3,38.3,59,37.5,59z M33.5,53c-0.3,0-0.5,0.2-0.5,0.5v4c0,0.3,0.2,0.5,0.5,0.5h4c0.3,0,0.5-0.2,0.5-0.5v-4    c0-0.3-0.2-0.5-0.5-0.5H33.5z"/></g><g><path fill="#ffffff" d="M40.5,43h-4c-0.8,0-1.5-0.7-1.5-1.5v-4c0-0.8,0.7-1.5,1.5-1.5h4c0.8,0,1.5,0.7,1.5,1.5v4    C42,42.3,41.3,43,40.5,43z M36.5,37c-0.3,0-0.5,0.2-0.5,0.5v4c0,0.3,0.2,0.5,0.5,0.5h4c0.3,0,0.5-0.2,0.5-0.5v-4    c0-0.3-0.2-0.5-0.5-0.5H36.5z"/></g><g><path fill="#ffffff" d="M42.5,51h-4c-0.8,0-1.5-0.7-1.5-1.5v-4c0-0.8,0.7-1.5,1.5-1.5h4c0.8,0,1.5,0.7,1.5,1.5v4    C44,50.3,43.3,51,42.5,51z M38.5,45c-0.3,0-0.5,0.2-0.5,0.5v4c0,0.3,0.2,0.5,0.5,0.5h4c0.3,0,0.5-0.2,0.5-0.5v-4    c0-0.3-0.2-0.5-0.5-0.5H38.5z"/></g><g><path fill="#ffffff" d="M45.5,59h-4c-0.8,0-1.5-0.7-1.5-1.5v-4c0-0.8,0.7-1.5,1.5-1.5h4c0.8,0,1.5,0.7,1.5,1.5v4    C47,58.3,46.3,59,45.5,59z M41.5,53c-0.3,0-0.5,0.2-0.5,0.5v4c0,0.3,0.2,0.5,0.5,0.5h4c0.3,0,0.5-0.2,0.5-0.5v-4    c0-0.3-0.2-0.5-0.5-0.5H41.5z"/></g><g><path fill="#ffffff" d="M48.5,43h-4c-0.8,0-1.5-0.7-1.5-1.5v-4c0-0.8,0.7-1.5,1.5-1.5h4c0.8,0,1.5,0.7,1.5,1.5v4    C50,42.3,49.3,43,48.5,43z M44.5,37c-0.3,0-0.5,0.2-0.5,0.5v4c0,0.3,0.2,0.5,0.5,0.5h4c0.3,0,0.5-0.2,0.5-0.5v-4    c0-0.3-0.2-0.5-0.5-0.5H44.5z"/></g><g><path fill="#ffffff" d="M50.5,51h-4c-0.8,0-1.5-0.7-1.5-1.5v-4c0-0.8,0.7-1.5,1.5-1.5h4c0.8,0,1.5,0.7,1.5,1.5v4    C52,50.3,51.3,51,50.5,51z M46.5,45c-0.3,0-0.5,0.2-0.5,0.5v4c0,0.3,0.2,0.5,0.5,0.5h4c0.3,0,0.5-0.2,0.5-0.5v-4    c0-0.3-0.2-0.5-0.5-0.5H46.5z"/></g><g><path fill="#ffffff" d="M53.5,59h-4c-0.8,0-1.5-0.7-1.5-1.5v-4c0-0.8,0.7-1.5,1.5-1.5h4c0.8,0,1.5,0.7,1.5,1.5v4    C55,58.3,54.3,59,53.5,59z M49.5,53c-0.3,0-0.5,0.2-0.5,0.5v4c0,0.3,0.2,0.5,0.5,0.5h4c0.3,0,0.5-0.2,0.5-0.5v-4    c0-0.3-0.2-0.5-0.5-0.5H49.5z"/></g><g><path fill="#ffffff" d="M56.5,43h-4c-0.8,0-1.5-0.7-1.5-1.5v-4c0-0.8,0.7-1.5,1.5-1.5h4c0.8,0,1.5,0.7,1.5,1.5v4    C58,42.3,57.3,43,56.5,43z M52.5,37c-0.3,0-0.5,0.2-0.5,0.5v4c0,0.3,0.2,0.5,0.5,0.5h4c0.3,0,0.5-0.2,0.5-0.5v-4    c0-0.3-0.2-0.5-0.5-0.5H52.5z"/></g><g><path fill="#ffffff" d="M58.5,51h-4c-0.8,0-1.5-0.7-1.5-1.5v-4c0-0.8,0.7-1.5,1.5-1.5h4c0.8,0,1.5,0.7,1.5,1.5v4    C60,50.3,59.3,51,58.5,51z M54.5,45c-0.3,0-0.5,0.2-0.5,0.5v4c0,0.3,0.2,0.5,0.5,0.5h4c0.3,0,0.5-0.2,0.5-0.5v-4    c0-0.3-0.2-0.5-0.5-0.5H54.5z"/></g><g><path fill="#ffffff" d="M61.5,59h-4c-0.8,0-1.5-0.7-1.5-1.5v-4c0-0.8,0.7-1.5,1.5-1.5h4c0.8,0,1.5,0.7,1.5,1.5v4    C63,58.3,62.3,59,61.5,59z M57.5,53c-0.3,0-0.5,0.2-0.5,0.5v4c0,0.3,0.2,0.5,0.5,0.5h4c0.3,0,0.5-0.2,0.5-0.5v-4    c0-0.3-0.2-0.5-0.5-0.5H57.5z"/></g><g><path fill="#ffffff" d="M64.5,43h-4c-0.8,0-1.5-0.7-1.5-1.5v-4c0-0.8,0.7-1.5,1.5-1.5h4c0.8,0,1.5,0.7,1.5,1.5v4    C66,42.3,65.3,43,64.5,43z M60.5,37c-0.3,0-0.5,0.2-0.5,0.5v4c0,0.3,0.2,0.5,0.5,0.5h4c0.3,0,0.5-0.2,0.5-0.5v-4    c0-0.3-0.2-0.5-0.5-0.5H60.5z"/></g><g><path fill="#ffffff" d="M72.5,43h-4c-0.8,0-1.5-0.7-1.5-1.5v-4c0-0.8,0.7-1.5,1.5-1.5h4c0.8,0,1.5,0.7,1.5,1.5v4    C74,42.3,73.3,43,72.5,43z M68.5,37c-0.3,0-0.5,0.2-0.5,0.5v4c0,0.3,0.2,0.5,0.5,0.5h4c0.3,0,0.5-0.2,0.5-0.5v-4    c0-0.3-0.2-0.5-0.5-0.5H68.5z"/></g><g><path fill="#ffffff" d="M80.5,43h-4c-0.8,0-1.5-0.7-1.5-1.5v-4c0-0.8,0.7-1.5,1.5-1.5h4c0.8,0,1.5,0.7,1.5,1.5v4    C82,42.3,81.3,43,80.5,43z M76.5,37c-0.3,0-0.5,0.2-0.5,0.5v4c0,0.3,0.2,0.5,0.5,0.5h4c0.3,0,0.5-0.2,0.5-0.5v-4    c0-0.3-0.2-0.5-0.5-0.5H76.5z"/></g><g><path fill="#ffffff" d="M88.5,43h-4c-0.8,0-1.5-0.7-1.5-1.5v-4c0-0.8,0.7-1.5,1.5-1.5h4c0.8,0,1.5,0.7,1.5,1.5v4    C90,42.3,89.3,43,88.5,43z M84.5,37c-0.3,0-0.5,0.2-0.5,0.5v4c0,0.3,0.2,0.5,0.5,0.5h4c0.3,0,0.5-0.2,0.5-0.5v-4    c0-0.3-0.2-0.5-0.5-0.5H84.5z"/></g><g><path fill="#ffffff" d="M66.5,51h-4c-0.8,0-1.5-0.7-1.5-1.5v-4c0-0.8,0.7-1.5,1.5-1.5h4c0.8,0,1.5,0.7,1.5,1.5v4    C68,50.3,67.3,51,66.5,51z M62.5,45c-0.3,0-0.5,0.2-0.5,0.5v4c0,0.3,0.2,0.5,0.5,0.5h4c0.3,0,0.5-0.2,0.5-0.5v-4    c0-0.3-0.2-0.5-0.5-0.5H62.5z"/></g><g><path fill="#ffffff" d="M74.5,51h-4c-0.8,0-1.5-0.7-1.5-1.5v-4c0-0.8,0.7-1.5,1.5-1.5h4c0.8,0,1.5,0.7,1.5,1.5v4    C76,50.3,75.3,51,74.5,51z M70.5,45c-0.3,0-0.5,0.2-0.5,0.5v4c0,0.3,0.2,0.5,0.5,0.5h4c0.3,0,0.5-0.2,0.5-0.5v-4    c0-0.3-0.2-0.5-0.5-0.5H70.5z"/></g><g><path fill="#ffffff" d="M82.5,51h-4c-0.8,0-1.5-0.7-1.5-1.5v-4c0-0.8,0.7-1.5,1.5-1.5h4c0.8,0,1.5,0.7,1.5,1.5v4    C84,50.3,83.3,51,82.5,51z M78.5,45c-0.3,0-0.5,0.2-0.5,0.5v4c0,0.3,0.2,0.5,0.5,0.5h4c0.3,0,0.5-0.2,0.5-0.5v-4    c0-0.3-0.2-0.5-0.5-0.5H78.5z"/></g><g><path fill="#ffffff" d="M88.5,51h-2c-0.8,0-1.5-0.7-1.5-1.5v-4c0-0.8,0.7-1.5,1.5-1.5h2c0.8,0,1.5,0.7,1.5,1.5v4    C90,50.3,89.3,51,88.5,51z M86.5,45c-0.3,0-0.5,0.2-0.5,0.5v4c0,0.3,0.2,0.5,0.5,0.5h2c0.3,0,0.5-0.2,0.5-0.5v-4    c0-0.3-0.2-0.5-0.5-0.5H86.5z"/></g><g><path fill="#ffffff" d="M69.5,59h-4c-0.8,0-1.5-0.7-1.5-1.5v-4c0-0.8,0.7-1.5,1.5-1.5h4c0.8,0,1.5,0.7,1.5,1.5v4    C71,58.3,70.3,59,69.5,59z M65.5,53c-0.3,0-0.5,0.2-0.5,0.5v4c0,0.3,0.2,0.5,0.5,0.5h4c0.3,0,0.5-0.2,0.5-0.5v-4    c0-0.3-0.2-0.5-0.5-0.5H65.5z"/></g><g><path fill="#ffffff" d="M77.5,59h-4c-0.8,0-1.5-0.7-1.5-1.5v-4c0-0.8,0.7-1.5,1.5-1.5h4c0.8,0,1.5,0.7,1.5,1.5v4    C79,58.3,78.3,59,77.5,59z M73.5,53c-0.3,0-0.5,0.2-0.5,0.5v4c0,0.3,0.2,0.5,0.5,0.5h4c0.3,0,0.5-0.2,0.5-0.5v-4    c0-0.3-0.2-0.5-0.5-0.5H73.5z"/></g><g><path fill="#ffffff" d="M24.5,67h-4c-0.8,0-1.5-0.7-1.5-1.5v-4c0-0.8,0.7-1.5,1.5-1.5h4c0.8,0,1.5,0.7,1.5,1.5v4    C26,66.3,25.3,67,24.5,67z M20.5,61c-0.3,0-0.5,0.2-0.5,0.5v4c0,0.3,0.2,0.5,0.5,0.5h4c0.3,0,0.5-0.2,0.5-0.5v-4    c0-0.3-0.2-0.5-0.5-0.5H20.5z"/></g><g><path fill="#ffffff" d="M68.5,67h-4c-0.8,0-1.5-0.7-1.5-1.5v-4c0-0.8,0.7-1.5,1.5-1.5h4c0.8,0,1.5,0.7,1.5,1.5v4    C70,66.3,69.3,67,68.5,67z M64.5,61c-0.3,0-0.5,0.2-0.5,0.5v4c0,0.3,0.2,0.5,0.5,0.5h4c0.3,0,0.5-0.2,0.5-0.5v-4    c0-0.3-0.2-0.5-0.5-0.5H64.5z"/></g><g><path fill="#ffffff" d="M60.5,67h-32c-0.8,0-1.5-0.7-1.5-1.5v-4c0-0.8,0.7-1.5,1.5-1.5h32c0.8,0,1.5,0.7,1.5,1.5v4    C62,66.3,61.3,67,60.5,67z M28.5,61c-0.3,0-0.5,0.2-0.5,0.5v4c0,0.3,0.2,0.5,0.5,0.5h32c0.3,0,0.5-0.2,0.5-0.5v-4    c0-0.3-0.2-0.5-0.5-0.5H28.5z"/></g><g><path fill="#ffffff" d="M16.5,67h-4c-0.8,0-1.5-0.7-1.5-1.5v-4c0-0.8,0.7-1.5,1.5-1.5h4c0.8,0,1.5,0.7,1.5,1.5v4    C18,66.3,17.3,67,16.5,67z M12.5,61c-0.3,0-0.5,0.2-0.5,0.5v4c0,0.3,0.2,0.5,0.5,0.5h4c0.3,0,0.5-0.2,0.5-0.5v-4    c0-0.3-0.2-0.5-0.5-0.5H12.5z"/></g><g><path fill="#ffffff" d="M18.5,51h-6c-0.8,0-1.5-0.7-1.5-1.5v-4c0-0.8,0.7-1.5,1.5-1.5h6c0.8,0,1.5,0.7,1.5,1.5v4    C20,50.3,19.3,51,18.5,51z M12.5,45c-0.3,0-0.5,0.2-0.5,0.5v4c0,0.3,0.2,0.5,0.5,0.5h6c0.3,0,0.5-0.2,0.5-0.5v-4    c0-0.3-0.2-0.5-0.5-0.5H12.5z"/></g><g><path fill="#ffffff" d="M21.5,59h-9c-0.8,0-1.5-0.7-1.5-1.5v-4c0-0.8,0.7-1.5,1.5-1.5h9c0.8,0,1.5,0.7,1.5,1.5v4    C23,58.3,22.3,59,21.5,59z M12.5,53c-0.3,0-0.5,0.2-0.5,0.5v4c0,0.3,0.2,0.5,0.5,0.5h9c0.3,0,0.5-0.2,0.5-0.5v-4    c0-0.3-0.2-0.5-0.5-0.5H12.5z"/></g><g><path fill="#ffffff" d="M88.5,59h-7c-0.8,0-1.5-0.7-1.5-1.5v-4c0-0.8,0.7-1.5,1.5-1.5h7c0.8,0,1.5,0.7,1.5,1.5v4    C90,58.3,89.3,59,88.5,59z M81.5,53c-0.3,0-0.5,0.2-0.5,0.5v4c0,0.3,0.2,0.5,0.5,0.5h7c0.3,0,0.5-0.2,0.5-0.5v-4    c0-0.3-0.2-0.5-0.5-0.5H81.5z"/></g></g><!-- <text x="0" y="115" fill="#ffffff" font-size="5px" font-weight="bold" font-family="'Helvetica Neue', Helvetica, Arial-Unicode, Arial, Sans-serif">Created by Yaroslav Samoilov</text><text x="0" y="120" fill="#ffffff" font-size="5px" font-weight="bold" font-family="'Helvetica Neue', Helvetica, Arial-Unicode, Arial, Sans-serif">from the Noun Project</text> --></svg>