<?xml version="1.0" encoding="UTF-8" standalone="no"?>
<svg width="193px" height="302px" viewBox="0 0 193 302" version="1.1" xmlns="http://www.w3.org/2000/svg" xmlns:xlink="http://www.w3.org/1999/xlink">
    <!-- Generator: Sketch 3.7.2 (28276) - http://www.bohemiancoding.com/sketch -->
    <title>Group 7</title>
    <desc>Created with Sketch.</desc>
    <defs></defs>
    <g id="Page-1" stroke="none" stroke-width="1" fill="none" fill-rule="evenodd">
        <g id="Group-7" transform="translate(-1.000000, 0.000000)" fill="#FFFFFF">
            <g id="notebook2" transform="translate(0.753203, 0.633560)">
                <g id="Group" transform="translate(0.000000, 0.000000)">
                    <polygon id="Shape" points="33.0529229 287.410704 21.7775593 300.651158 21.7775593 275.450927 33.0529229 275.450927"></polygon>
                    <polyline id="Shape" points="142.06619 3.99110949 153.338162 3.99110949 153.338162 263.630061 142.06619 263.630061"></polyline>
                    <path d="M166.427757,266.286283 L0.902029084,266.286283 L0.902029084,0.0135521545 L166.427757,0.0135521545 C181.41297,0.0135521545 193.152912,11.3600935 193.152912,25.8473466 L193.152912,239.127765 C193.152912,253.848793 180.921262,266.286283 166.427757,266.286283 L166.427757,266.286283 Z M6.2090799,260.984002 L166.431148,260.984002 C178.04562,260.984002 187.852643,250.979124 187.852643,239.124377 L187.852643,25.8439585 C187.852643,14.3280153 178.445769,5.30905651 166.431148,5.30905651 L6.2090799,5.30905651 L6.2090799,260.984002 L6.2090799,260.984002 Z" id="Shape"></path>
                </g>
            </g>
            <text id="NOTES" font-family="Arial-Black, Arial Black" font-size="24" font-weight="700" letter-spacing="3.13333321">
                <tspan x="23.4869795" y="95">NOTES</tspan>
            </text>
        </g>
    </g>
</svg>