<svg xmlns="http://www.w3.org/2000/svg" viewBox="0 0 32 40"><path fill="#fff" d="M27.017 2.123a4.953 4.953 0 0 0-6.91 1.143L7.609 20.713c-1.138 1.589-.773 3.802.816 4.924a3.527 3.527 0 0 0 4.935-.807l8.815-12.322-1.149-.823-8.82 12.319a2.136 2.136 0 0 1-2.96.5 2.135 2.135 0 0 1-.488-2.972L21.253 4.084l-.003-.002a3.54 3.54 0 0 1 4.93-.815c1.562 1.138 1.951 3.352.796 4.938v-.003L13.297 27.328l.001.002a4.976 4.976 0 0 1-6.912 1.15c-2.219-1.592-2.73-4.687-1.142-6.92l9.953-13.89-1.146-.819L4.106 20.74a6.351 6.351 0 0 0 1.47 8.871c2.859 2.051 6.834 1.386 8.881-1.457L28.152 9.025a4.935 4.935 0 0 0-1.135-6.902z"/></svg>