<svg xmlns="http://www.w3.org/2000/svg" xmlns:xlink="http://www.w3.org/1999/xlink" version="1.1" x="0px" y="0px" viewBox="0 0 100 125" enable-background="new 0 0 100 100" xml:space="preserve"><path fill="#ffffff" d="M100,5.714L94.285,0l-3.547,3.548l-0.713-0.715l-6.43,6.428l0.715,0.714l-3.572,3.571l-1.428-1.428L67.168,24.26  l0.717,0.715l-33.57,33.567l-0.713-0.713L12.889,78.541l0.714,0.715l-4.286,4.285L1.464,95.678l0.726,0.729L0,98.597L1.404,100  l2.188-2.188l0.726,0.728l12.141-7.855l4.285-4.286l0.714,0.715L42.172,66.4l-0.715-0.715l39.281-39.283l0.729,0.727L64.326,44.271  l1.402,1.404l17.141-17.141l0.012,0.012l6.43-6.428l-2.857-2.857l3.572-3.571l0.713,0.714l6.428-6.427l-0.715-0.715L100,5.714z   M94.285,2.808l2.906,2.906l-2.145,2.143l-2.904-2.905L94.285,2.808z M86.43,9.237L90,5.666L94.334,10l-3.572,3.571L86.43,9.237z   M28.564,65.674l0.739-0.739l5.763,5.763l-0.74,0.738L28.564,65.674z M32.923,72.84l-0.738,0.738l-5.763-5.762l0.738-0.738  L32.923,72.84z M30.708,63.53l0.737-0.736l5.764,5.761l-0.738,0.738L30.708,63.53z M32.849,61.39l0.728-0.729l5.762,5.763  l-0.727,0.727L32.849,61.39z M15.722,78.517l0.726-0.727l5.763,5.763l-0.727,0.727L15.722,78.517z M17.852,76.386l0.738-0.737  l5.763,5.762l-0.738,0.738L17.852,76.386z M19.994,74.244l0.739-0.739l5.763,5.763l-0.739,0.738L19.994,74.244z M10.202,85.83  l3.97,3.968l-9.439,6.107l-0.638-0.638L10.202,85.83z M15.758,88.576l-4.334-4.333l3.583-3.584l4.333,4.334L15.758,88.576z   M27.9,77.863l-5.763-5.763l0.737-0.736l5.763,5.762L27.9,77.863z M24.278,69.96l0.739-0.739l5.764,5.762l-0.74,0.739L24.278,69.96z   M35.719,59.947l34.259-34.259h8.666L40.053,64.281L35.719,59.947z M86.488,22.105l-3.619,3.62l-0.727-0.728l0.025-0.024  l-1.43-1.429H70.74l-0.023-0.024l8.594-8.595l0.023,0.024l-0.023,0.024l5.715,5.715l0.023-0.024L86.488,22.105z M85.049,17.857  l-2.904-2.906l3.57-3.571l2.906,2.905L85.049,17.857z"/><!-- <text x="0" y="115" fill="#000000" font-size="5px" font-weight="bold" font-family="'Helvetica Neue', Helvetica, Arial-Unicode, Arial, Sans-serif">Created by Jake Dunham</text><text x="0" y="120" fill="#000000" font-size="5px" font-weight="bold" font-family="'Helvetica Neue', Helvetica, Arial-Unicode, Arial, Sans-serif">from the Noun Project</text> --></svg>