<svg xmlns="http://www.w3.org/2000/svg" viewBox="0 0 100 125"><path fill="#fff" d="M100 5.714L94.285 0l-3.547 3.548-.713-.715-6.43 6.428.715.714-3.572 3.571-1.428-1.428L67.168 24.26l.717.715-33.57 33.567-.713-.713-20.713 20.712.714.715-4.286 4.285-7.853 12.137.726.729L0 98.597 1.404 100l2.188-2.188.726.728 12.141-7.855 4.285-4.286.714.715L42.172 66.4l-.715-.715 39.281-39.283.729.727-17.141 17.142 1.402 1.404 17.141-17.141.012.012 6.43-6.428-2.857-2.857 3.572-3.571.713.714 6.428-6.427-.715-.715L100 5.714zm-5.715-2.906l2.906 2.906-2.145 2.143-2.904-2.905 2.143-2.144zM86.43 9.237L90 5.666 94.334 10l-3.572 3.571-4.332-4.334zM28.564 65.674l.739-.739 5.763 5.763-.74.738-5.762-5.762zm4.359 7.166l-.738.738-5.763-5.762.738-.738 5.763 5.762zm-2.215-9.31l.737-.736 5.764 5.761-.738.738-5.763-5.763zm2.141-2.14l.728-.729 5.762 5.763-.727.727-5.763-5.761zM15.722 78.517l.726-.727 5.763 5.763-.727.727-5.762-5.763zm2.13-2.131l.738-.737 5.763 5.762-.738.738-5.763-5.763zm2.142-2.142l.739-.739 5.763 5.763-.739.738-5.763-5.762zM10.202 85.83l3.97 3.968-9.439 6.107-.638-.638 6.107-9.437zm5.556 2.746l-4.334-4.333 3.583-3.584 4.333 4.334-3.582 3.583zM27.9 77.863L22.137 72.1l.737-.736 5.763 5.762-.737.737zm-3.622-7.903l.739-.739 5.764 5.762-.74.739-5.763-5.762zm11.441-10.013l34.259-34.259h8.666L40.053 64.281l-4.334-4.334zm50.769-37.842l-3.619 3.62-.727-.728.025-.024-1.43-1.429H70.74l-.023-.024 8.594-8.595.023.024-.023.024 5.715 5.715.023-.024 1.439 1.441zm-1.439-4.248l-2.904-2.906 3.57-3.571 2.906 2.905-3.572 3.572z"/></svg>