<svg xmlns="http://www.w3.org/2000/svg" xmlns:xlink="http://www.w3.org/1999/xlink" version="1.1" x="0px" y="0px" viewBox="0 0 100 125" enable-background="new 0 0 100 100" xml:space="preserve"><path fill-rule="evenodd" clip-rule="evenodd" d="M96.053,64.267c-0.1-0.378-0.379-0.782-0.692-1.013  c-0.456-0.334-0.999-0.577-1.539-0.759c-1.887-0.637-3.611-1.609-5.061-2.918c-1.893-1.707-3.919-3.234-5.938-4.771  c-1.226-0.935-2.55-1.739-3.833-2.603c-1.053-0.71-2.108-1.417-3.159-2.129c-1.355-0.918-2.713-1.832-4.057-2.763  c-0.969-0.67-1.921-1.366-2.878-2.055c-0.541-0.39-1.056-0.821-1.619-1.175c-0.49-0.306-0.646-0.688-0.666-1.26  c-0.032-0.899-0.562-1.217-1.425-0.904c-0.51,0.185-1.012,0.422-1.469,0.711c-2.15,1.369-3.923,3.127-5.394,5.214  c-0.623,0.885-1.392,1.668-2.077,2.477c-0.622-0.123-1.021-0.496-1.17-0.993c-0.323-1.071-0.636-2.176-0.243-3.298  c0.299-0.854,0.686-1.677,1.01-2.522c0.761-1.98,1.982-3.658,3.332-5.268c0.561-0.667,1.025-1.415,1.514-2.14  c0.425-0.627,0.597-1.306,0.433-2.075c-0.049-0.229,0.027-0.537,0.153-0.742c0.348-0.564,0.761-1.086,1.133-1.635  c1.356-2.005,1.872-4.255,1.879-6.641c0.006-2.039-0.199-4.064-0.824-6.009c-0.541-1.684-1.349-3.199-3.342-3.547  c-1.18-0.206-2.371-0.271-3.423,0.411c-1.018,0.662-1.99,1.407-2.629,2.475c-0.575,0.96-1.141,1.929-1.649,2.926  c-0.717,1.402-1.512,2.785-2.032,4.262c-1.037,2.947-2.639,5.575-4.341,8.151c-0.696,1.053-1.661,1.836-2.951,2.139  c-0.294-0.516-0.507-1.071-0.875-1.492c-0.587-0.677-0.992-1.475-1.679-2.105c-0.814-0.745-1.344-1.789-2.062-2.648  c-0.618-0.74-1.301-1.432-2.008-2.089c-0.507-0.471-0.883-0.355-1.264,0.195c-0.179,0.256-0.428,0.487-0.691,0.656  c-0.356,0.228-0.746,0.408-1.14,0.564c-3.338,1.325-6.407,3.172-9.552,4.871c-2.188,1.182-4.389,2.339-6.599,3.478  c-2.532,1.305-5.076,2.587-7.625,3.858c-0.862,0.428-1.704,0.866-2.709,0.991c-2.081,0.257-2.996,1.897-3.141,3.471  c-0.169,1.849-0.034,3.667,0.477,5.486c0.942,3.351,2.291,6.518,3.949,9.56c1.27,2.329,3.038,4.226,5.272,5.651  c0.546,0.348,1.208,0.559,1.845,0.699c0.49,0.109,1.043,0.088,1.534-0.021c0.452-0.102,1.083-0.295,1.237-0.631  c0.277-0.602,0.92-0.4,1.219-0.807c0.035-0.049,0.089-0.094,0.103-0.148c0.141-0.531,0.6-0.74,1.009-0.992  c0.879-0.541,1.735-1.123,2.652-1.592c2.753-1.403,5.531-2.758,8.298-4.137c1.111-0.553,2.211-1.13,3.324-1.678  c2.238-1.1,4.544-2.062,6.676-3.372c0.747-0.458,1.57-0.794,2.354-1.192c0.856-0.436,1.708-0.879,2.529-1.302  c0.209,0.139,0.329,0.23,0.462,0.306c0.681,0.383,0.981,0.332,1.27-0.404c0.191-0.487,0.338-1.093,0.222-1.58  c-0.501-2.105-0.595-4.323-1.831-6.236c-0.585-0.907-0.933-1.968-1.378-2.963c-0.318-0.711-0.623-1.429-0.963-2.208  c0.327-0.208,0.57-0.374,0.825-0.521c1.942-1.115,3.497-2.585,4.333-4.716c0.064-0.167,0.163-0.32,0.246-0.48  c0.417-0.805,0.901-1.583,1.238-2.419c1.24-3.073,2.759-5.999,4.508-8.806c0.661-1.06,1.456-2.001,2.603-2.6  c0.817-0.428,1.64-0.469,2.242,0.199c0.492,0.544,0.947,1.236,1.113,1.934c0.268,1.139,0.291,2.336,0.412,3.51  c0.246,2.415-0.487,4.607-1.535,6.728c-0.078,0.158-0.148,0.319-0.252,0.544c-0.296-0.387-0.443-0.542-0.547-0.721  c-0.994-1.723-3.617-1.637-4.809-0.967c-0.205,0.116-0.392,0.298-0.532,0.489c-0.972,1.329-1.319,2.775-0.796,4.382  c0.349,1.07,0.691,1.36,1.821,1.427c1.117,0.069,2.23,0.064,3.333-0.405c-0.158,0.424-0.35,0.784-0.603,1.093  c-0.688,0.843-1.432,1.642-2.1,2.5c-0.574,0.739-1.174,1.485-1.584,2.316c-0.533,1.08-0.904,2.242-1.319,3.378  c-0.493,1.353-0.829,2.728-0.42,4.175c0.285,1.007,0.787,1.908,1.41,2.735c0.276,0.366,0.619,0.77,1.178,0.448  c0.005-0.013,0.008-0.026,0.013-0.039c0.012-0.005,0.019-0.014,0.03-0.019c0.05-0.244,0.047-0.509-0.24-0.556  c-0.441-0.075-0.565-0.417-0.746-0.721c-0.493-0.832-0.97-1.653-1.094-2.658c-0.098-0.782-0.009-1.523,0.22-2.24  c0.458-1.44,0.902-2.896,1.512-4.272c0.372-0.84,1.018-1.568,1.584-2.311c1.099-1.441,2.371-2.746,3.27-4.343  c0.222-0.395,0.676-0.659,1.043-1.001c0.351,0.474,0.239,0.925,0.043,1.267c-0.541,0.938-1.075,1.9-1.767,2.725  c-1.15,1.378-2.229,2.793-2.984,4.426c-0.457,0.987-0.852,2.002-1.275,3.003c-0.543,1.279-0.274,2.573-0.01,3.844  c0.08,0.38,0.438,0.715,0.71,1.035c0.194,0.228,0.457,0.396,0.713,0.61c-0.335,0.481-0.473,0.982-0.978,1.192  c-0.002,0.013-0.003,0.026-0.006,0.039c-0.013,0.008-0.024,0.011-0.037,0.019c-0.123,0.348-0.214,0.714-0.386,1.036  c-0.528,0.989-1.167,1.926-1.624,2.943c-0.895,1.988-1.782,3.988-2.5,6.043c-0.354,1.008-0.342,2.148-0.459,3.232  c-0.031,0.289,0.01,0.645,0.38,0.748c0.378,0.105,0.78,0.222,1.086-0.175c0.144-0.185,0.282-0.374,0.438-0.581  c1.358,0.811,2.631,1.51,3.841,2.303c2.023,1.324,3.994,2.73,6.01,4.066c3.159,2.092,6.338,4.151,9.505,6.229  c1.367,0.898,2.728,1.809,4.088,2.715c1.08,0.719,2.165,1.428,3.232,2.164c0.267,0.186,0.479,0.453,0.711,0.688  c0.934,0.954,2.126,1.404,3.323,0.719c0.497-0.285,1.021-0.527,1.507-0.828c1.31-0.816,2.605-1.631,3.723-2.74  c0.862-0.857,1.653-1.76,2.449-2.673c1.159-1.332,2.104-2.805,3.045-4.282c0.729-1.146,1.299-2.394,1.998-3.562  C96.275,68.386,96.614,66.389,96.053,64.267z M40.026,32.86c-1.23-1.796-3.04-3.123-4.178-4.989  C37.743,29.124,38.782,31.079,40.026,32.86z M16.229,66.341c-0.089,0.01-0.182,0.001-0.272,0.001  c-0.986,0.026-1.817-0.355-2.601-0.925c-1.812-1.318-3.333-2.9-4.457-4.844c-0.423-0.734-0.789-1.502-1.176-2.254  c-1.339-2.594-2.347-5.309-3.116-8.124c-0.375-1.371-0.429-2.737-0.306-4.133c0.072-0.825,0.433-1.505,1.031-2.056  c0.292-0.268,0.634-0.345,1.071-0.338c1.113,0.02,1.845,0.651,2.536,1.375c0.175,0.182,0.376,0.507,0.325,0.704  c-0.262,1.012,0,1.986,0.131,2.968c0.334,2.488,1.183,4.816,2.353,7.02c0.74,1.394,1.705,2.643,2.83,3.76  c0.15,0.146,0.258,0.338,0.409,0.484c0.45,0.43,0.813,0.95,1.502,1.1c0.442,0.096,0.761,0.404,0.829,0.95  c0.102,0.841,0.373,1.663,0.439,2.505C17.89,66.164,17.619,66.202,16.229,66.341z M9.602,46.172  c1.801,1.465,7.109,11.473,7.134,14.416C12.156,56.853,10.147,51.988,9.602,46.172z M18.477,64.775  c-0.182-0.88-0.336-1.647-0.5-2.415c-0.983-4.582-2.878-8.784-5.265-12.793c-0.916-1.54-1.867-3.051-3.041-4.403  c-0.528-0.61-1.176-1.117-1.775-1.665c-0.15-0.137-0.321-0.252-0.489-0.38c0.487-0.487,0.655-0.514,1.106-0.083  c0.568,0.545,1.145,1.091,1.638,1.702c0.778,0.965,1.5,1.978,2.227,2.983c1.273,1.755,2.177,3.705,3.016,5.692  c0.742,1.755,1.569,3.475,2.265,5.246c0.607,1.546,1.111,3.14,1.228,4.813C18.914,63.874,19.146,64.382,18.477,64.775z   M19.655,64.033c-0.05-0.257-0.121-0.537-0.161-0.819c-0.294-2.15-0.937-4.197-1.81-6.178c-0.708-1.607-1.406-3.219-2.096-4.833  c-1.105-2.586-2.581-4.946-4.374-7.106c-0.81-0.977-1.669-1.91-2.55-2.913c1.551-0.822,3.092-1.64,4.781-2.535  c0.661,0.759,1.298,1.446,1.885,2.174c0.836,1.035,1.657,2.086,2.452,3.154c1.676,2.25,2.955,4.723,4.036,7.307  c0.917,2.197,1.504,4.481,1.933,6.812c0.072,0.387,0.091,0.783,0.128,1.176c0.014,0.15-0.041,0.336,0.028,0.446  c0.096,0.153,0.28,0.251,0.428,0.372c0.091-0.139,0.266-0.282,0.259-0.415c-0.021-0.391-0.104-0.778-0.179-1.165  c-0.418-2.114-0.877-4.217-1.643-6.239c-1.483-3.916-3.452-7.55-6.218-10.727c-0.869-0.999-1.672-2.06-2.553-3.149  c0.26-0.156,0.51-0.306,0.824-0.495c0.291,0.278,0.61,0.513,0.843,0.816c1.406,1.825,2.858,3.616,3.999,5.632  c0.402,0.712,0.847,1.405,1.321,2.071c0.892,1.255,1.479,2.641,1.906,4.108c0.642,2.211,1.308,4.415,1.942,6.628  c0.141,0.494,0.192,1.013,0.282,1.521c0.026,0.148-0.008,0.338,0.073,0.439c0.109,0.137,0.302,0.204,0.46,0.302  c0.073-0.15,0.237-0.323,0.207-0.447c-0.441-1.761-0.891-3.52-1.375-5.269c-0.274-0.994-0.653-1.959-0.916-2.955  c-0.641-2.423-2.027-4.452-3.312-6.55c-1.304-2.129-2.865-4.059-4.358-6.044c-0.09-0.119-0.164-0.249-0.307-0.468  c0.296-0.171,0.563-0.327,0.889-0.515c0.568,0.706,1.099,1.362,1.625,2.021c1.762,2.211,3.203,4.635,4.653,7.052  c0.738,1.23,1.298,2.535,1.653,3.93c0.76,2.993,1.536,5.984,2.312,8.996C24.385,61.448,22.061,62.718,19.655,64.033z M27.44,59.9  c-0.169-0.324-0.37-0.594-0.454-0.896c-0.461-1.662-0.9-3.332-1.332-5.002c-0.344-1.319-0.632-2.654-1.007-3.963  c-0.453-1.59-1.367-2.959-2.188-4.377c-1.552-2.68-3.437-5.124-5.399-7.706c0.432-0.254,0.787-0.463,1.221-0.72  c5.468,6.468,9.33,13.588,10.005,22.216C28.027,59.589,27.769,59.726,27.44,59.9z M35.125,56.216  c-0.482-1.648-0.956-3.176-1.376-4.719c-0.708-2.609-1.58-5.156-2.796-7.575c-0.732-1.458-1.307-3.004-2.321-4.306  c-1.134-1.457-2.301-2.888-3.455-4.33c-0.357-0.447-0.695-0.917-1.29-1.08c-0.001,0-0.002,0.001-0.003,0.001  c0.213,0.677,0.725,1.156,1.187,1.662c2.102,2.301,3.873,4.827,5.123,7.687c0.873,1.997,1.676,4.028,2.445,6.068  c0.362,0.96,0.572,1.978,0.859,2.968c0.15,0.523,0.355,1.034,0.479,1.564c0.176,0.759,0.298,1.53,0.455,2.357  c-1.781,0.866-3.436,1.936-5.454,2.553c-0.135-0.572-0.283-1.082-0.371-1.603c-0.421-2.452-1.001-4.862-1.769-7.229  c-0.556-1.711-1.404-3.285-2.219-4.879c-0.932-1.819-2.1-3.468-3.353-5.073c-0.818-1.045-1.549-2.159-2.315-3.236  c0.748-0.724,0.773-0.719,1.406,0.018c1.406,1.638,2.578,3.439,3.68,5.288c0.62,1.04,1.316,2.041,1.869,3.114  c0.817,1.587,1.504,3.226,1.996,4.962c0.693,2.451,1.396,4.89,1.685,7.431c0.017,0.135,0.258,0.244,0.395,0.366  c0.068-0.169,0.222-0.356,0.192-0.505c-0.652-3.145-1.266-6.301-2.348-9.337c-0.727-2.039-1.695-3.953-2.902-5.749  c-0.862-1.283-1.698-2.584-2.573-3.858c-0.392-0.574-0.854-1.098-1.276-1.651c-0.217-0.285-0.415-0.584-0.686-0.968  c0.331-0.203,0.592-0.39,0.876-0.533c0.676-0.341,1.368-0.652,2.043-0.997c0.208-0.105,0.383-0.277,0.573-0.419  c0,0,0.001,0,0.002-0.001c0-0.001-0.001-0.002-0.002-0.004c0.002,0,0.003,0.002,0.005,0.002c0.779-0.381,1.561-0.763,2.423-1.185  c0.225,0.193,0.514,0.37,0.711,0.619c0.729,0.923,1.44,1.859,2.133,2.811c0.532,0.734,1.085,1.465,1.524,2.254  c1.18,2.114,2.366,4.227,3.425,6.401c0.646,1.327,1.058,2.768,1.573,4.158c0.062,0.17,0.095,0.352,0.165,0.518  c0.646,1.514,0.98,3.115,1.319,4.714c0.018,0.083,0.071,0.158,0.136,0.295c0.189-0.072,0.366-0.141,0.581-0.223  c-1.231-3.948-2.305-7.882-4.165-11.552c-1.855-3.662-4.049-7.087-6.812-10.262c0.431-0.299,0.74-0.514,1.085-0.753  c0.892,0.735,1.464,1.655,2.049,2.564c0.754,1.171,1.464,2.376,2.293,3.492c1.537,2.066,2.623,4.361,3.521,6.748  c0.67,1.783,1.157,3.637,1.858,5.406c0.53,1.339,0.889,2.693,1.03,4.236C37.574,55.017,36.371,55.606,35.125,56.216z M39.385,53.978  c-0.103-0.271-0.223-0.543-0.308-0.826c-0.427-1.419-0.789-2.861-1.279-4.258c-0.801-2.286-1.611-4.571-2.555-6.801  c-0.731-1.727-1.709-3.333-2.826-4.86c-1.282-1.757-2.439-3.604-3.715-5.506c0.327-0.208,0.579-0.368,0.92-0.584  c0.254,0.312,0.523,0.588,0.734,0.905c1.076,1.61,2.195,3.197,3.186,4.859c0.898,1.509,1.618,3.122,2.474,4.655  c1.219,2.187,2.042,4.528,2.758,6.908c0.46,1.533,0.781,3.106,1.191,4.657C40.098,53.63,39.928,53.878,39.385,53.978z   M45.534,50.905c-1.214,0.619-2.429,1.233-3.646,1.846c-0.42,0.211-0.847,0.41-1.341,0.649c-0.288-1.196-0.493-2.294-0.819-3.355  c-0.649-2.111-1.268-4.239-2.082-6.288c-0.645-1.624-1.619-3.111-2.351-4.704c-1.199-2.607-3-4.831-4.492-7.25  c-0.171-0.278-0.312-0.573-0.533-0.984c0.651-0.34,1.173-0.638,1.718-0.889c0.879-0.407,1.772-0.785,2.66-1.173  c0.432-0.189,0.818-0.166,1.148,0.22c1.007,1.172,2.075,2.296,3.018,3.517c1.713,2.217,3.058,4.661,4.169,7.231  c0.863,2,1.682,4.021,2.547,6.023c0.54,1.25,0.697,2.561,0.73,3.903C46.275,50.235,46.041,50.646,45.534,50.905z M46.197,44.029  c0.354,0.654,0.605,1.309,0.753,2.026c0.128,0.622,0.323,1.231,0.43,1.855c0.135,0.772,0.249,1.551,0.296,2.333  c0.027,0.48-0.037,0.484-0.502,0.868c-0.394-0.165-0.372-0.542-0.343-0.847c0.227-2.393-0.599-4.526-1.547-6.648  c-1.086-2.433-2.107-4.895-3.157-7.344c0.027-0.042,0.055-0.083,0.083-0.124c0.117,0.085,0.292,0.146,0.346,0.262  c0.464,0.985,0.892,1.987,1.36,2.97C44.656,40.938,45.373,42.513,46.197,44.029z M57.119,35.236c-0.79,0.231-1.677,0.18-2.517,0.154  c-0.265-0.009-0.609-0.298-0.762-0.553c-0.819-1.371-0.498-3.487,0.646-4.543c0.541-0.498,1.254-0.463,1.895-0.511  c0.966-0.071,1.769,0.343,2.291,1.205c0.172,0.284,0.348,0.566,0.578,0.939c-0.182,0.209-0.335,0.385-0.493,0.568  c-0.111-0.064-0.195-0.098-0.261-0.154c-0.253-0.216-0.497-0.445-0.751-0.66c-0.811-0.685-2.774-0.143-2.891,0.98  c-0.102,0.979,0.37,1.515,1.354,1.56c1.293,0.059,2.172-0.674,3.034-1.438c0.734-0.65,1.272-1.455,1.598-2.399  c0.256-0.743,0.624-1.452,0.832-2.205c0.234-0.841,0.459-1.712,0.482-2.576c0.043-1.473,0.11-2.947-0.31-4.418  c-0.215-0.753-0.316-1.508-0.748-2.2c-0.569-0.917-1.425-1.26-2.406-1.422c-0.172-0.028-0.394-0.02-0.535,0.067  c-0.793,0.484-1.676,0.829-2.281,1.604c-1.369,1.751-2.473,3.654-3.392,5.673c-0.611,1.349-1.267,2.676-1.923,4.003  c-0.735,1.492-1.447,2.998-2.256,4.45c-1.016,1.825-2.501,3.166-4.519,4.003c-0.15-0.239-0.286-0.456-0.438-0.696  c0.161-0.137,0.26-0.264,0.388-0.323c1.402-0.646,2.396-1.71,3.159-3.03c0.834-1.441,1.751-2.837,2.532-4.307  c0.554-1.038,0.909-2.177,1.404-3.249c0.682-1.482,1.423-2.938,2.114-4.418c0.605-1.298,1.347-2.502,2.312-3.568  c1.212-1.342,2.653-2.06,4.515-1.832c1.238,0.152,2.028,0.851,2.609,1.883c0.546,0.968,0.804,2.034,0.981,3.109  c0.25,1.522,0.428,3.05,0.38,4.606c-0.085,2.843-1.146,5.282-2.968,7.401C59.807,34.062,58.527,34.823,57.119,35.236z   M57.898,32.982c-0.332,0.565-0.897,0.627-1.474,0.673c-0.444,0.035-0.754-0.088-0.858-0.576c-0.108-0.506,0.01-0.766,0.515-0.996  C56.869,31.724,57.487,32.027,57.898,32.982z M51.52,63.771c-0.14,0.459-0.269,0.928-1.011,0.877c0.243,0.314,0.4,0.52,0.62,0.804  c-0.221,0.133-0.398,0.239-0.729,0.438c0.071-1.252-0.03-2.363,0.377-3.377c0.925-2.304,1.831-4.627,2.941-6.842  c1.291-2.576,2.879-4.982,4.787-7.168c1.216-1.394,2.378-2.829,3.789-4.041c0.903-0.775,1.864-1.439,2.941-1.942  c0.447-0.209,0.694-0.162,0.83,0.167c0.152,0.37-0.012,0.728-0.455,0.8c-1.28,0.207-2.148,1.026-3.001,1.899  c-0.846,0.866-1.78,1.655-2.559,2.577c-0.875,1.04-1.623,2.187-2.418,3.295c-1.609,2.249-2.867,4.708-4.102,7.169  c-0.741,1.479-1.204,3.097-1.789,4.652C51.656,63.306,51.59,63.539,51.52,63.771z M57.663,68.751  c-0.462-0.329-0.837-0.623-1.237-0.879c-1.223-0.781-2.451-1.555-3.684-2.32c-0.845-0.524-1.022-0.978-0.729-1.898  c0.643-2.02,1.288-4.052,2.348-5.892c0.963-1.674,1.695-3.476,2.886-5.025c0.807-1.052,1.488-2.2,2.238-3.294  c1.125-1.637,2.712-2.836,4.072-4.25c0.369-0.381,0.86-0.663,1.331-0.924c0.784-0.435,1.501-0.359,2.248,0.226  c1.208,0.947,2.499,1.788,3.749,2.681c0.292,0.208,0.56,0.45,0.898,0.724c-0.665,0.615-1.291,1.167-1.89,1.748  c-1.954,1.894-3.995,3.708-5.493,6.019c-1.167,1.801-2.433,3.547-3.472,5.418c-1.026,1.848-1.843,3.812-2.707,5.746  C57.969,67.397,57.866,68.033,57.663,68.751z M58.314,69.187c-0.137-1.232,0.278-2.289,0.769-3.289  c0.932-1.9,1.884-3.798,2.948-5.626c0.957-1.644,2.042-3.216,3.139-4.771c0.609-0.864,1.333-1.649,2.047-2.435  c0.852-0.935,1.717-1.858,2.63-2.732c0.742-0.709,1.563-1.335,2.388-2.03c0.264,0.144,0.488,0.267,0.697,0.38  c-0.032,0.124-0.026,0.198-0.062,0.229c-2.261,1.967-4.381,4.082-6.18,6.477c-1.797,2.395-3.561,4.831-5.122,7.383  c-1.094,1.793-2.179,3.642-2.729,5.719c-0.037,0.146-0.143,0.305-0.109,0.43c0.037,0.139,0.178,0.287,0.311,0.346  c0.062,0.028,0.3-0.131,0.31-0.224c0.274-2.409,1.703-4.313,2.862-6.302c1.218-2.088,2.637-4.066,4.058-6.027  c0.994-1.37,2.065-2.701,3.237-3.92c1.146-1.191,2.274-2.43,3.68-3.348c0.356-0.233,0.648-0.321,0.943,0.195  c-0.182,0.202-0.359,0.437-0.574,0.633c-2.678,2.456-5.211,5.042-7.334,8.004c-0.669,0.934-1.373,1.845-2.021,2.793  c-1.409,2.062-2.377,4.35-3.319,6.647c-0.331,0.808-0.637,1.626-1.003,2.562C59.303,69.877,58.782,69.515,58.314,69.187z   M61.543,71.399c-0.42-0.296-0.749-0.529-1.083-0.764c0.686-2.877,1.938-5.448,3.303-7.975c0.981-1.819,2.241-3.449,3.551-5.033  c1.271-1.539,2.544-3.094,3.984-4.467c1.126-1.073,2.028-2.431,3.603-3.151c0.279,0.184,0.553,0.363,0.918,0.603  c-0.544,0.427-1.035,0.803-1.513,1.195c-0.585,0.479-1.192,0.936-1.727,1.466c-1.054,1.042-2.062,2.133-3.091,3.2  c-1.713,1.775-3.135,3.773-4.426,5.86c-0.474,0.765-0.769,1.644-1.108,2.485c-0.646,1.599-1.276,3.205-1.887,4.816  C61.865,70.168,61.739,70.729,61.543,71.399z M62.846,72.18c-0.268-0.127-0.45-0.214-0.633-0.302  c-0.047-1.139,0.311-2.168,0.692-3.176c0.592-1.561,1.242-3.095,1.873-4.638c0.518-1.267,1.244-2.409,2.006-3.546  c1.754-2.613,4.094-4.68,6.244-6.928c0.825-0.862,1.766-1.554,2.716-2.245c0.582-0.423,0.605-0.391,1.275,0.194  c-0.201,0.207-0.38,0.445-0.607,0.617c-1.844,1.389-3.503,2.98-5.084,4.654c-1.121,1.188-2.29,2.35-3.271,3.648  c-0.904,1.199-1.692,2.516-2.338,3.873c-0.818,1.715-1.453,3.52-2.136,5.297c-0.204,0.533-0.301,1.106-0.455,1.658  C63.05,71.571,62.951,71.851,62.846,72.18z M67.251,75.108c-1.364-0.879-2.61-1.682-3.816-2.459c0.095-0.578,0.186-1.072,0.261-1.57  c0.28-1.88,1.029-3.592,1.791-5.316c0.938-2.12,2.131-4.078,3.572-5.867c0.961-1.196,2.106-2.252,3.206-3.332  c1.233-1.209,2.496-2.386,3.77-3.553c0.444-0.406,0.953-0.743,1.513-1.174c1.455,0.923,2.928,1.857,4.469,2.835  c-1.01,0.995-1.96,1.948-2.929,2.882c-1.113,1.071-2.29,2.081-3.351,3.2c-0.79,0.831-1.525,1.739-2.139,2.706  c-1.38,2.179-2.716,4.387-3.973,6.637c-0.709,1.265-1.227,2.637-1.836,3.957C67.64,74.376,67.466,74.688,67.251,75.108z   M68.314,75.843c-0.127-0.076-0.229-0.193-0.366-0.312c0.34-1.964,1.175-3.655,2.077-5.296c0.905-1.642,1.927-3.22,2.928-4.806  c0.708-1.123,1.448-2.228,2.218-3.311c0.346-0.487,0.772-0.925,1.202-1.347c1.669-1.631,3.344-3.254,5.036-4.859  c0.322-0.307,0.736-0.52,1.144-0.801c0.325,0.248,0.626,0.48,1.029,0.789c-0.878,0.746-1.655,1.449-2.477,2.097  c-2.023,1.601-3.961,3.271-5.378,5.475c-0.67,1.042-1.521,1.968-2.19,3.007c-0.704,1.091-1.318,2.242-1.923,3.391  c-0.663,1.26-1.286,2.539-1.895,3.826c-0.347,0.735-0.623,1.503-0.952,2.309C68.574,75.938,68.432,75.912,68.314,75.843z   M69.42,76.563c-0.095-1.096,0.41-1.998,0.809-2.893c1.146-2.576,2.393-5.118,4.002-7.437c1.952-2.81,3.977-5.575,6.805-7.616  c0.761-0.55,1.464-1.179,2.2-1.764c0.877-0.697,0.993-0.678,1.8,0.336c-0.663,0.588-1.31,1.214-2.01,1.773  c-0.873,0.695-1.809,1.312-2.681,2.008c-1.261,1.009-2.375,2.139-3.245,3.531c-0.929,1.488-2.082,2.833-3.027,4.312  c-1.075,1.681-2.229,3.332-2.918,5.23c-0.247,0.683-0.45,1.382-0.68,2.07c-0.094,0.283-0.307,0.646,0.147,0.734  c0.412,0.081,0.408-0.344,0.473-0.629c0.143-0.617,0.259-1.242,0.431-1.852c0.435-1.542,1.393-2.82,2.206-4.158  c1.006-1.656,2.176-3.211,3.215-4.846c1.04-1.637,2.39-2.977,3.878-4.178c1.555-1.254,3.159-2.443,4.788-3.693  c0.229,0.186,0.483,0.391,0.808,0.652c-1.003,0.817-1.901,1.68-2.924,2.357c-1.831,1.213-3.494,2.601-4.929,4.26  c-0.81,0.939-1.69,1.846-2.34,2.891c-1.533,2.472-2.979,5.002-3.829,7.816c-0.241,0.805-0.512,1.602-0.804,2.511  C70.853,77.498,70.134,77.028,69.42,76.563z M78.556,80.797c-0.072,0.554-0.078,1.118-0.114,1.677  c-0.066,0.021-0.131,0.045-0.195,0.068c-0.183-0.507-0.61-0.666-1.019-0.906c-1.694-0.998-3.346-2.066-5.021-3.113  c0.276-2.241,1.044-4.232,1.962-6.168c0.607-1.281,1.288-2.53,1.968-3.777c0.97-1.783,2.46-3.139,3.835-4.59  c1.135-1.195,2.469-2.145,3.799-3.1c0.538-0.387,1.023-0.852,1.55-1.259c0.357-0.276,0.721-0.559,1.118-0.767  c0.586-0.305,0.681-0.244,1.109,0.449c-0.923,0.623-1.827,1.276-2.772,1.865c-1.401,0.873-2.589,1.995-3.737,3.156  c-0.913,0.923-1.804,1.881-2.598,2.906c-0.813,1.051-1.538,2.178-2.225,3.316c-0.717,1.189-1.376,2.412-1.975,3.676  c-0.575,1.211-0.683,2.506-1.076,3.74c-0.144,0.451,0.141,0.571,0.551,0.656c0.057-0.434,0.108-0.816,0.155-1.199  c0.265-2.086,1.074-3.959,2.198-5.714c0.72-1.122,1.424-2.253,2.139-3.376c1.402-2.206,3.296-3.961,5.281-5.612  c1.14-0.946,2.391-1.759,3.61-2.607c0.289-0.2,0.647-0.303,0.957-0.442c1.466,1.042,2.887,2.053,4.308,3.062  c-0.249,0.092-0.553,0.205-0.857,0.313c-1.958,0.7-3.528,1.968-4.993,3.396c-0.454,0.443-0.94,0.854-1.393,1.3  c-2.3,2.26-3.977,4.947-5.323,7.852C79.032,77.243,78.786,79.022,78.556,80.797z M79.159,82.483c-0.036-0.177-0.07-0.361-0.06-0.541  c0.125-2.186,0.337-4.362,1.339-6.354c0.679-1.348,1.408-2.677,2.208-3.956c1.398-2.229,3.285-4.028,5.287-5.706  c0.485-0.408,0.989-0.799,1.51-1.158c1.131-0.786,2.41-1.259,3.728-1.604c0.829-0.216,1.514,0.129,2.253,1.004  c-0.269-0.038-0.463-0.052-0.649-0.096c-0.986-0.238-1.909-0.082-2.815,0.37c-1.42,0.71-2.72,1.602-3.845,2.712  c-2.095,2.062-4.144,4.188-5.739,6.664c-1.466,2.275-2.646,4.715-2.68,7.52c-0.009,0.732,0.133,1.467,0.209,2.24  C79.461,83.326,79.254,82.942,79.159,82.483z M89.251,68.387c-0.656,1.325-1.289,2.689-2.153,3.876  c-0.792,1.086-1.844,1.993-2.838,2.918c-0.814,0.758-1.71,1.428-2.575,2.131c-0.089,0.072-0.214,0.1-0.473,0.215  c0.2-1.165,0.719-2.014,1.223-2.863c1.356-2.28,3.133-4.218,4.987-6.093c0.614-0.619,1.154-1.314,2.007-1.774  C89.611,67.394,89.471,67.943,89.251,68.387z M95.38,68.632c-1.054,2.01-2.115,4.025-3.319,5.945  c-0.964,1.536-2.069,2.998-3.242,4.382c-1.844,2.178-4.148,3.786-6.743,4.972c-0.698,0.318-1.395-0.092-1.694-1.02  c-0.155-0.48-0.187-1.002-0.275-1.518c0.146-0.816,0.269-1.623,0.444-2.419c0.084-0.386,0.307-0.635,0.75-0.8  c0.549-0.203,1.057-0.585,1.514-0.971c2.161-1.817,4.184-3.77,5.713-6.173c0.79-1.243,1.33-2.583,1.522-4.045  c0.096-0.728,0.398-1.243,1.126-1.482c0.253-0.085,0.482-0.251,0.712-0.397c0.839-0.537,1.757-0.611,2.716-0.492  c0.398,0.049,0.688,0.248,0.844,0.605C95.942,66.364,95.954,67.539,95.38,68.632z"/><path fill-rule="evenodd" clip-rule="evenodd" d="M35.547,52.599c-0.811-2.317-1.632-4.632-2.444-6.949  c-0.953-2.718-2.402-5.161-4.126-7.45c-0.474-0.628-0.997-1.219-1.487-1.835c-0.621-0.782-1.226-1.58-1.854-2.356  c-0.09-0.111-0.274-0.142-0.427-0.216c-0.194,0.394,0.055,0.566,0.215,0.771c1.245,1.603,2.526,3.18,3.726,4.815  c1.916,2.611,3.212,5.547,4.305,8.576c0.452,1.254,0.848,2.53,1.262,3.797c0.227,0.689,0.443,1.385,0.66,2.078  c0.166,0.533,0.324,1.068,0.489,1.61c0.444-0.076,0.533-0.278,0.424-0.602C36.042,54.092,35.806,53.341,35.547,52.599z"/></svg>