<svg xmlns="http://www.w3.org/2000/svg" viewBox="0 0 100 125"><path fill-rule="evenodd" clip-rule="evenodd" d="M96.053 64.267a1.987 1.987 0 0 0-.692-1.013c-.456-.334-.999-.577-1.539-.759-1.887-.637-3.611-1.609-5.061-2.918-1.893-1.707-3.919-3.234-5.938-4.771-1.226-.935-2.55-1.739-3.833-2.603-1.053-.71-2.108-1.417-3.159-2.129-1.355-.918-2.713-1.832-4.057-2.763-.969-.67-1.921-1.366-2.878-2.055-.541-.39-1.056-.821-1.619-1.175-.49-.306-.646-.688-.666-1.26-.032-.899-.562-1.217-1.425-.904a7.63 7.63 0 0 0-1.469.711c-2.15 1.369-3.923 3.127-5.394 5.214-.623.885-1.392 1.668-2.077 2.477-.622-.123-1.021-.496-1.17-.993-.323-1.071-.636-2.176-.243-3.298.299-.854.686-1.677 1.01-2.522.761-1.98 1.982-3.658 3.332-5.268.561-.667 1.025-1.415 1.514-2.14.425-.627.597-1.306.433-2.075-.049-.229.027-.537.153-.742.348-.564.761-1.086 1.133-1.635 1.356-2.005 1.872-4.255 1.879-6.641.006-2.039-.199-4.064-.824-6.009-.541-1.684-1.349-3.199-3.342-3.547-1.18-.206-2.371-.271-3.423.411-1.018.662-1.99 1.407-2.629 2.475a49.145 49.145 0 0 0-1.649 2.926c-.717 1.402-1.512 2.785-2.032 4.262-1.037 2.947-2.639 5.575-4.341 8.151-.696 1.053-1.661 1.836-2.951 2.139-.294-.516-.507-1.071-.875-1.492-.587-.677-.992-1.475-1.679-2.105-.814-.745-1.344-1.789-2.062-2.648a23.023 23.023 0 0 0-2.008-2.089c-.507-.471-.883-.355-1.264.195a2.525 2.525 0 0 1-.691.656 6.641 6.641 0 0 1-1.14.564c-3.338 1.325-6.407 3.172-9.552 4.871a384.04 384.04 0 0 1-6.599 3.478 640.361 640.361 0 0 1-7.625 3.858c-.862.428-1.704.866-2.709.991-2.081.257-2.996 1.897-3.141 3.471-.169 1.849-.034 3.667.477 5.486.942 3.351 2.291 6.518 3.949 9.56a15.313 15.313 0 0 0 5.272 5.651c.546.348 1.208.559 1.845.699a3.64 3.64 0 0 0 1.534-.021c.452-.102 1.083-.295 1.237-.631.277-.602.92-.4 1.219-.807.035-.049.089-.094.103-.148.141-.531.6-.74 1.009-.992.879-.541 1.735-1.123 2.652-1.592 2.753-1.403 5.531-2.758 8.298-4.137 1.111-.553 2.211-1.13 3.324-1.678 2.238-1.1 4.544-2.062 6.676-3.372.747-.458 1.57-.794 2.354-1.192.856-.436 1.708-.879 2.529-1.302.209.139.329.23.462.306.681.383.981.332 1.27-.404.191-.487.338-1.093.222-1.58-.501-2.105-.595-4.323-1.831-6.236-.585-.907-.933-1.968-1.378-2.963-.318-.711-.623-1.429-.963-2.208.327-.208.57-.374.825-.521 1.942-1.115 3.497-2.585 4.333-4.716.064-.167.163-.32.246-.48.417-.805.901-1.583 1.238-2.419 1.24-3.073 2.759-5.999 4.508-8.806.661-1.06 1.456-2.001 2.603-2.6.817-.428 1.64-.469 2.242.199.492.544.947 1.236 1.113 1.934.268 1.139.291 2.336.412 3.51.246 2.415-.487 4.607-1.535 6.728-.078.158-.148.319-.252.544-.296-.387-.443-.542-.547-.721-.994-1.723-3.617-1.637-4.809-.967a1.773 1.773 0 0 0-.532.489c-.972 1.329-1.319 2.775-.796 4.382.349 1.07.691 1.36 1.821 1.427 1.117.069 2.23.064 3.333-.405-.158.424-.35.784-.603 1.093-.688.843-1.432 1.642-2.1 2.5-.574.739-1.174 1.485-1.584 2.316-.533 1.08-.904 2.242-1.319 3.378-.493 1.353-.829 2.728-.42 4.175.285 1.007.787 1.908 1.41 2.735.276.366.619.77 1.178.448l.013-.039c.012-.005.019-.014.03-.019.05-.244.047-.509-.24-.556-.441-.075-.565-.417-.746-.721-.493-.832-.97-1.653-1.094-2.658a5.151 5.151 0 0 1 .22-2.24c.458-1.44.902-2.896 1.512-4.272.372-.84 1.018-1.568 1.584-2.311 1.099-1.441 2.371-2.746 3.27-4.343.222-.395.676-.659 1.043-1.001.351.474.239.925.043 1.267-.541.938-1.075 1.9-1.767 2.725-1.15 1.378-2.229 2.793-2.984 4.426-.457.987-.852 2.002-1.275 3.003-.543 1.279-.274 2.573-.01 3.844.08.38.438.715.71 1.035.194.228.457.396.713.61-.335.481-.473.982-.978 1.192l-.006.039c-.013.008-.024.011-.037.019-.123.348-.214.714-.386 1.036-.528.989-1.167 1.926-1.624 2.943-.895 1.988-1.782 3.988-2.5 6.043-.354 1.008-.342 2.148-.459 3.232-.031.289.01.645.38.748.378.105.78.222 1.086-.175.144-.185.282-.374.438-.581 1.358.811 2.631 1.51 3.841 2.303 2.023 1.324 3.994 2.73 6.01 4.066 3.159 2.092 6.338 4.151 9.505 6.229 1.367.898 2.728 1.809 4.088 2.715 1.08.719 2.165 1.428 3.232 2.164.267.186.479.453.711.688.934.954 2.126 1.404 3.323.719.497-.285 1.021-.527 1.507-.828 1.31-.816 2.605-1.631 3.723-2.74.862-.857 1.653-1.76 2.449-2.673 1.159-1.332 2.104-2.805 3.045-4.282.729-1.146 1.299-2.394 1.998-3.562 1.131-1.884 1.47-3.881.909-6.003zM40.026 32.86c-1.23-1.796-3.04-3.123-4.178-4.989 1.895 1.253 2.934 3.208 4.178 4.989zM16.229 66.341c-.089.01-.182.001-.272.001-.986.026-1.817-.355-2.601-.925-1.812-1.318-3.333-2.9-4.457-4.844-.423-.734-.789-1.502-1.176-2.254-1.339-2.594-2.347-5.309-3.116-8.124-.375-1.371-.429-2.737-.306-4.133.072-.825.433-1.505 1.031-2.056.292-.268.634-.345 1.071-.338 1.113.02 1.845.651 2.536 1.375.175.182.376.507.325.704-.262 1.012 0 1.986.131 2.968.334 2.488 1.183 4.816 2.353 7.02.74 1.394 1.705 2.643 2.83 3.76.15.146.258.338.409.484.45.43.813.95 1.502 1.1.442.096.761.404.829.95.102.841.373 1.663.439 2.505.133 1.63-.138 1.668-1.528 1.807zM9.602 46.172c1.801 1.465 7.109 11.473 7.134 14.416-4.58-3.735-6.589-8.6-7.134-14.416zm8.875 18.603c-.182-.88-.336-1.647-.5-2.415-.983-4.582-2.878-8.784-5.265-12.793-.916-1.54-1.867-3.051-3.041-4.403-.528-.61-1.176-1.117-1.775-1.665-.15-.137-.321-.252-.489-.38.487-.487.655-.514 1.106-.083.568.545 1.145 1.091 1.638 1.702.778.965 1.5 1.978 2.227 2.983 1.273 1.755 2.177 3.705 3.016 5.692.742 1.755 1.569 3.475 2.265 5.246.607 1.546 1.111 3.14 1.228 4.813.027.402.259.91-.41 1.303zm1.178-.742c-.05-.257-.121-.537-.161-.819-.294-2.15-.937-4.197-1.81-6.178a479.321 479.321 0 0 1-2.096-4.833c-1.105-2.586-2.581-4.946-4.374-7.106-.81-.977-1.669-1.91-2.55-2.913l4.781-2.535c.661.759 1.298 1.446 1.885 2.174a101.106 101.106 0 0 1 2.452 3.154c1.676 2.25 2.955 4.723 4.036 7.307.917 2.197 1.504 4.481 1.933 6.812.072.387.091.783.128 1.176.014.15-.041.336.028.446.096.153.28.251.428.372.091-.139.266-.282.259-.415-.021-.391-.104-.778-.179-1.165-.418-2.114-.877-4.217-1.643-6.239-1.483-3.916-3.452-7.55-6.218-10.727-.869-.999-1.672-2.06-2.553-3.149l.824-.495c.291.278.61.513.843.816 1.406 1.825 2.858 3.616 3.999 5.632.402.712.847 1.405 1.321 2.071.892 1.255 1.479 2.641 1.906 4.108.642 2.211 1.308 4.415 1.942 6.628.141.494.192 1.013.282 1.521.026.148-.008.338.073.439.109.137.302.204.46.302.073-.15.237-.323.207-.447-.441-1.761-.891-3.52-1.375-5.269-.274-.994-.653-1.959-.916-2.955-.641-2.423-2.027-4.452-3.312-6.55-1.304-2.129-2.865-4.059-4.358-6.044-.09-.119-.164-.249-.307-.468l.889-.515c.568.706 1.099 1.362 1.625 2.021 1.762 2.211 3.203 4.635 4.653 7.052a14.608 14.608 0 0 1 1.653 3.93c.76 2.993 1.536 5.984 2.312 8.996-2.337 1.28-4.661 2.55-7.067 3.865zM27.44 59.9c-.169-.324-.37-.594-.454-.896-.461-1.662-.9-3.332-1.332-5.002-.344-1.319-.632-2.654-1.007-3.963-.453-1.59-1.367-2.959-2.188-4.377-1.552-2.68-3.437-5.124-5.399-7.706l1.221-.72c5.468 6.468 9.33 13.588 10.005 22.216l-.846.448zm7.685-3.684c-.482-1.648-.956-3.176-1.376-4.719-.708-2.609-1.58-5.156-2.796-7.575-.732-1.458-1.307-3.004-2.321-4.306-1.134-1.457-2.301-2.888-3.455-4.33-.357-.447-.695-.917-1.29-1.08l-.003.001c.213.677.725 1.156 1.187 1.662 2.102 2.301 3.873 4.827 5.123 7.687a126.793 126.793 0 0 1 2.445 6.068c.362.96.572 1.978.859 2.968.15.523.355 1.034.479 1.564.176.759.298 1.53.455 2.357-1.781.866-3.436 1.936-5.454 2.553-.135-.572-.283-1.082-.371-1.603a51.745 51.745 0 0 0-1.769-7.229c-.556-1.711-1.404-3.285-2.219-4.879-.932-1.819-2.1-3.468-3.353-5.073-.818-1.045-1.549-2.159-2.315-3.236.748-.724.773-.719 1.406.018 1.406 1.638 2.578 3.439 3.68 5.288.62 1.04 1.316 2.041 1.869 3.114.817 1.587 1.504 3.226 1.996 4.962.693 2.451 1.396 4.89 1.685 7.431.017.135.258.244.395.366.068-.169.222-.356.192-.505-.652-3.145-1.266-6.301-2.348-9.337a25.796 25.796 0 0 0-2.902-5.749c-.862-1.283-1.698-2.584-2.573-3.858-.392-.574-.854-1.098-1.276-1.651-.217-.285-.415-.584-.686-.968.331-.203.592-.39.876-.533.676-.341 1.368-.652 2.043-.997.208-.105.383-.277.573-.419l.002-.001-.002-.004.005.002 2.423-1.185c.225.193.514.37.711.619a89.83 89.83 0 0 1 2.133 2.811c.532.734 1.085 1.465 1.524 2.254 1.18 2.114 2.366 4.227 3.425 6.401.646 1.327 1.058 2.768 1.573 4.158.062.17.095.352.165.518.646 1.514.98 3.115 1.319 4.714.018.083.071.158.136.295l.581-.223c-1.231-3.948-2.305-7.882-4.165-11.552-1.855-3.662-4.049-7.087-6.812-10.262L27.984 32c.892.735 1.464 1.655 2.049 2.564.754 1.171 1.464 2.376 2.293 3.492 1.537 2.066 2.623 4.361 3.521 6.748.67 1.783 1.157 3.637 1.858 5.406.53 1.339.889 2.693 1.03 4.236-1.161.571-2.364 1.16-3.61 1.77zm4.26-2.238c-.103-.271-.223-.543-.308-.826-.427-1.419-.789-2.861-1.279-4.258-.801-2.286-1.611-4.571-2.555-6.801-.731-1.727-1.709-3.333-2.826-4.86-1.282-1.757-2.439-3.604-3.715-5.506l.92-.584c.254.312.523.588.734.905 1.076 1.61 2.195 3.197 3.186 4.859.898 1.509 1.618 3.122 2.474 4.655 1.219 2.187 2.042 4.528 2.758 6.908.46 1.533.781 3.106 1.191 4.657.133.503-.037.751-.58.851zm6.149-3.073a829.893 829.893 0 0 1-3.646 1.846c-.42.211-.847.41-1.341.649-.288-1.196-.493-2.294-.819-3.355-.649-2.111-1.268-4.239-2.082-6.288-.645-1.624-1.619-3.111-2.351-4.704-1.199-2.607-3-4.831-4.492-7.25-.171-.278-.312-.573-.533-.984.651-.34 1.173-.638 1.718-.889.879-.407 1.772-.785 2.66-1.173.432-.189.818-.166 1.148.22 1.007 1.172 2.075 2.296 3.018 3.517 1.713 2.217 3.058 4.661 4.169 7.231.863 2 1.682 4.021 2.547 6.023.54 1.25.697 2.561.73 3.903.015.584-.219.995-.726 1.254zm.663-6.876c.354.654.605 1.309.753 2.026.128.622.323 1.231.43 1.855.135.772.249 1.551.296 2.333.027.48-.037.484-.502.868-.394-.165-.372-.542-.343-.847.227-2.393-.599-4.526-1.547-6.648-1.086-2.433-2.107-4.895-3.157-7.344a5.35 5.35 0 0 1 .083-.124c.117.085.292.146.346.262.464.985.892 1.987 1.36 2.97.74 1.558 1.457 3.133 2.281 4.649zm10.922-8.793c-.79.231-1.677.18-2.517.154-.265-.009-.609-.298-.762-.553-.819-1.371-.498-3.487.646-4.543.541-.498 1.254-.463 1.895-.511.966-.071 1.769.343 2.291 1.205.172.284.348.566.578.939l-.493.568c-.111-.064-.195-.098-.261-.154-.253-.216-.497-.445-.751-.66-.811-.685-2.774-.143-2.891.98-.102.979.37 1.515 1.354 1.56 1.293.059 2.172-.674 3.034-1.438a5.605 5.605 0 0 0 1.598-2.399c.256-.743.624-1.452.832-2.205.234-.841.459-1.712.482-2.576.043-1.473.11-2.947-.31-4.418-.215-.753-.316-1.508-.748-2.2-.569-.917-1.425-1.26-2.406-1.422-.172-.028-.394-.02-.535.067-.793.484-1.676.829-2.281 1.604-1.369 1.751-2.473 3.654-3.392 5.673a131.256 131.256 0 0 1-1.923 4.003c-.735 1.492-1.447 2.998-2.256 4.45-1.016 1.825-2.501 3.166-4.519 4.003l-.438-.696c.161-.137.26-.264.388-.323 1.402-.646 2.396-1.71 3.159-3.03.834-1.441 1.751-2.837 2.532-4.307.554-1.038.909-2.177 1.404-3.249.682-1.482 1.423-2.938 2.114-4.418.605-1.298 1.347-2.502 2.312-3.568 1.212-1.342 2.653-2.06 4.515-1.832 1.238.152 2.028.851 2.609 1.883.546.968.804 2.034.981 3.109.25 1.522.428 3.05.38 4.606-.085 2.843-1.146 5.282-2.968 7.401-.965 1.123-2.245 1.884-3.653 2.297zm.779-2.254c-.332.565-.897.627-1.474.673-.444.035-.754-.088-.858-.576-.108-.506.01-.766.515-.996.788-.359 1.406-.056 1.817.899zM51.52 63.771c-.14.459-.269.928-1.011.877l.62.804-.729.438c.071-1.252-.03-2.363.377-3.377.925-2.304 1.831-4.627 2.941-6.842a34.076 34.076 0 0 1 4.787-7.168c1.216-1.394 2.378-2.829 3.789-4.041.903-.775 1.864-1.439 2.941-1.942.447-.209.694-.162.83.167.152.37-.012.728-.455.8-1.28.207-2.148 1.026-3.001 1.899-.846.866-1.78 1.655-2.559 2.577-.875 1.04-1.623 2.187-2.418 3.295-1.609 2.249-2.867 4.708-4.102 7.169-.741 1.479-1.204 3.097-1.789 4.652-.085.227-.151.46-.221.692zm6.143 4.98c-.462-.329-.837-.623-1.237-.879a334.863 334.863 0 0 0-3.684-2.32c-.845-.524-1.022-.978-.729-1.898.643-2.02 1.288-4.052 2.348-5.892.963-1.674 1.695-3.476 2.886-5.025.807-1.052 1.488-2.2 2.238-3.294 1.125-1.637 2.712-2.836 4.072-4.25.369-.381.86-.663 1.331-.924.784-.435 1.501-.359 2.248.226 1.208.947 2.499 1.788 3.749 2.681.292.208.56.45.898.724-.665.615-1.291 1.167-1.89 1.748-1.954 1.894-3.995 3.708-5.493 6.019-1.167 1.801-2.433 3.547-3.472 5.418-1.026 1.848-1.843 3.812-2.707 5.746-.252.566-.355 1.202-.558 1.92zm.651.436c-.137-1.232.278-2.289.769-3.289.932-1.9 1.884-3.798 2.948-5.626.957-1.644 2.042-3.216 3.139-4.771.609-.864 1.333-1.649 2.047-2.435a55.593 55.593 0 0 1 2.63-2.732c.742-.709 1.563-1.335 2.388-2.03l.697.38c-.032.124-.026.198-.062.229-2.261 1.967-4.381 4.082-6.18 6.477-1.797 2.395-3.561 4.831-5.122 7.383-1.094 1.793-2.179 3.642-2.729 5.719-.037.146-.143.305-.109.43a.601.601 0 0 0 .311.346c.062.028.3-.131.31-.224.274-2.409 1.703-4.313 2.862-6.302 1.218-2.088 2.637-4.066 4.058-6.027.994-1.37 2.065-2.701 3.237-3.92 1.146-1.191 2.274-2.43 3.68-3.348.356-.233.648-.321.943.195-.182.202-.359.437-.574.633-2.678 2.456-5.211 5.042-7.334 8.004-.669.934-1.373 1.845-2.021 2.793-1.409 2.062-2.377 4.35-3.319 6.647-.331.808-.637 1.626-1.003 2.562l-1.566-1.094zm3.229 2.212l-1.083-.764c.686-2.877 1.938-5.448 3.303-7.975.981-1.819 2.241-3.449 3.551-5.033 1.271-1.539 2.544-3.094 3.984-4.467 1.126-1.073 2.028-2.431 3.603-3.151l.918.603c-.544.427-1.035.803-1.513 1.195-.585.479-1.192.936-1.727 1.466-1.054 1.042-2.062 2.133-3.091 3.2-1.713 1.775-3.135 3.773-4.426 5.86-.474.765-.769 1.644-1.108 2.485a241.264 241.264 0 0 0-1.887 4.816c-.202.534-.328 1.095-.524 1.765zm1.303.781l-.633-.302c-.047-1.139.311-2.168.692-3.176.592-1.561 1.242-3.095 1.873-4.638.518-1.267 1.244-2.409 2.006-3.546 1.754-2.613 4.094-4.68 6.244-6.928.825-.862 1.766-1.554 2.716-2.245.582-.423.605-.391 1.275.194-.201.207-.38.445-.607.617-1.844 1.389-3.503 2.98-5.084 4.654-1.121 1.188-2.29 2.35-3.271 3.648a22.607 22.607 0 0 0-2.338 3.873c-.818 1.715-1.453 3.52-2.136 5.297-.204.533-.301 1.106-.455 1.658-.078.285-.177.565-.282.894zm4.405 2.928l-3.816-2.459c.095-.578.186-1.072.261-1.57.28-1.88 1.029-3.592 1.791-5.316a26.247 26.247 0 0 1 3.572-5.867c.961-1.196 2.106-2.252 3.206-3.332a152.445 152.445 0 0 1 3.77-3.553c.444-.406.953-.743 1.513-1.174l4.469 2.835c-1.01.995-1.96 1.948-2.929 2.882-1.113 1.071-2.29 2.081-3.351 3.2a17.873 17.873 0 0 0-2.139 2.706 140.48 140.48 0 0 0-3.973 6.637c-.709 1.265-1.227 2.637-1.836 3.957-.149.322-.323.634-.538 1.054zm1.063.735c-.127-.076-.229-.193-.366-.312.34-1.964 1.175-3.655 2.077-5.296.905-1.642 1.927-3.22 2.928-4.806a71.776 71.776 0 0 1 2.218-3.311c.346-.487.772-.925 1.202-1.347a470.694 470.694 0 0 1 5.036-4.859c.322-.307.736-.52 1.144-.801l1.029.789c-.878.746-1.655 1.449-2.477 2.097-2.023 1.601-3.961 3.271-5.378 5.475-.67 1.042-1.521 1.968-2.19 3.007-.704 1.091-1.318 2.242-1.923 3.391a100.659 100.659 0 0 0-1.895 3.826c-.347.735-.623 1.503-.952 2.309-.193-.067-.335-.093-.453-.162zm1.106.72c-.095-1.096.41-1.998.809-2.893 1.146-2.576 2.393-5.118 4.002-7.437 1.952-2.81 3.977-5.575 6.805-7.616.761-.55 1.464-1.179 2.2-1.764.877-.697.993-.678 1.8.336-.663.588-1.31 1.214-2.01 1.773-.873.695-1.809 1.312-2.681 2.008-1.261 1.009-2.375 2.139-3.245 3.531-.929 1.488-2.082 2.833-3.027 4.312-1.075 1.681-2.229 3.332-2.918 5.23-.247.683-.45 1.382-.68 2.07-.094.283-.307.646.147.734.412.081.408-.344.473-.629.143-.617.259-1.242.431-1.852.435-1.542 1.393-2.82 2.206-4.158 1.006-1.656 2.176-3.211 3.215-4.846 1.04-1.637 2.39-2.977 3.878-4.178 1.555-1.254 3.159-2.443 4.788-3.693l.808.652c-1.003.817-1.901 1.68-2.924 2.357-1.831 1.213-3.494 2.601-4.929 4.26-.81.939-1.69 1.846-2.34 2.891-1.533 2.472-2.979 5.002-3.829 7.816-.241.805-.512 1.602-.804 2.511-.742-.48-1.461-.95-2.175-1.415zm9.136 4.234c-.072.554-.078 1.118-.114 1.677-.066.021-.131.045-.195.068-.183-.507-.61-.666-1.019-.906-1.694-.998-3.346-2.066-5.021-3.113.276-2.241 1.044-4.232 1.962-6.168.607-1.281 1.288-2.53 1.968-3.777.97-1.783 2.46-3.139 3.835-4.59 1.135-1.195 2.469-2.145 3.799-3.1.538-.387 1.023-.852 1.55-1.259.357-.276.721-.559 1.118-.767.586-.305.681-.244 1.109.449-.923.623-1.827 1.276-2.772 1.865-1.401.873-2.589 1.995-3.737 3.156-.913.923-1.804 1.881-2.598 2.906-.813 1.051-1.538 2.178-2.225 3.316a41.652 41.652 0 0 0-1.975 3.676c-.575 1.211-.683 2.506-1.076 3.74-.144.451.141.571.551.656.057-.434.108-.816.155-1.199.265-2.086 1.074-3.959 2.198-5.714.72-1.122 1.424-2.253 2.139-3.376 1.402-2.206 3.296-3.961 5.281-5.612 1.14-.946 2.391-1.759 3.61-2.607.289-.2.647-.303.957-.442l4.308 3.062c-.249.092-.553.205-.857.313-1.958.7-3.528 1.968-4.993 3.396-.454.443-.94.854-1.393 1.3-2.3 2.26-3.977 4.947-5.323 7.852-.766 1.644-1.012 3.423-1.242 5.198zm.603 1.686a2.153 2.153 0 0 1-.06-.541c.125-2.186.337-4.362 1.339-6.354a49.146 49.146 0 0 1 2.208-3.956c1.398-2.229 3.285-4.028 5.287-5.706.485-.408.989-.799 1.51-1.158 1.131-.786 2.41-1.259 3.728-1.604.829-.216 1.514.129 2.253 1.004-.269-.038-.463-.052-.649-.096-.986-.238-1.909-.082-2.815.37-1.42.71-2.72 1.602-3.845 2.712-2.095 2.062-4.144 4.188-5.739 6.664-1.466 2.275-2.646 4.715-2.68 7.52-.009.732.133 1.467.209 2.24-.444-.252-.651-.636-.746-1.095zm10.092-14.096c-.656 1.325-1.289 2.689-2.153 3.876-.792 1.086-1.844 1.993-2.838 2.918-.814.758-1.71 1.428-2.575 2.131-.089.072-.214.1-.473.215.2-1.165.719-2.014 1.223-2.863 1.356-2.28 3.133-4.218 4.987-6.093.614-.619 1.154-1.314 2.007-1.774.182.597.042 1.146-.178 1.59zm6.129.245c-1.054 2.01-2.115 4.025-3.319 5.945-.964 1.536-2.069 2.998-3.242 4.382-1.844 2.178-4.148 3.786-6.743 4.972-.698.318-1.395-.092-1.694-1.02-.155-.48-.187-1.002-.275-1.518.146-.816.269-1.623.444-2.419.084-.386.307-.635.75-.8.549-.203 1.057-.585 1.514-.971 2.161-1.817 4.184-3.77 5.713-6.173.79-1.243 1.33-2.583 1.522-4.045.096-.728.398-1.243 1.126-1.482.253-.085.482-.251.712-.397.839-.537 1.757-.611 2.716-.492.398.049.688.248.844.605.494 1.145.506 2.32-.068 3.413z"/><path fill-rule="evenodd" clip-rule="evenodd" d="M35.547 52.599c-.811-2.317-1.632-4.632-2.444-6.949-.953-2.718-2.402-5.161-4.126-7.45-.474-.628-.997-1.219-1.487-1.835-.621-.782-1.226-1.58-1.854-2.356-.09-.111-.274-.142-.427-.216-.194.394.055.566.215.771 1.245 1.603 2.526 3.18 3.726 4.815 1.916 2.611 3.212 5.547 4.305 8.576.452 1.254.848 2.53 1.262 3.797.227.689.443 1.385.66 2.078.166.533.324 1.068.489 1.61.444-.076.533-.278.424-.602-.248-.746-.484-1.497-.743-2.239z"/></svg>